<svg xmlns="http://www.w3.org/2000/svg" width="120" height="237" viewBox="0 0 120 237" fill="none">
  <path fill-rule="evenodd" clip-rule="evenodd"
    d="M77.6118 190.106C77.873 190.366 78.0036 190.68 78.0036 191.047C78.0036 191.415 77.8706 191.743 77.602 192.003C77.3407 192.253 77.0278 192.377 76.6631 192.377C76.2983 192.377 75.9706 192.25 75.7118 191.993C75.4531 191.736 75.325 191.422 75.325 191.047C75.325 190.672 75.463 190.334 75.7414 190.077C76.0051 189.837 76.3107 189.717 76.6631 189.717C77.0327 189.717 77.3481 189.847 77.6118 190.106Z"
    fill="#FFC627" />
  <path fill-rule="evenodd" clip-rule="evenodd"
    d="M118.812 40.8543C85.9015 54.8633 76.722 79.0126 76.7047 79.0763L76.3326 80.0563L77.2493 79.5197C79.8935 77.9714 84.6964 75.3719 87.9912 74.022C84.1469 82.1608 78.5332 97.8455 76.2685 108.971C76.0689 109.956 75.7412 110.784 75.5712 111.568C75.4603 112.08 75.3641 112.393 75.1596 112.781C74.9206 113.244 74.4893 113.606 73.9743 114.013C73.5627 114.353 71.3178 115.451 71.3129 115.453C71.303 115.463 70.8052 115.72 70.268 115.975C69.9895 116.108 69.7111 116.237 69.4819 116.333C69.4696 116.338 69.4523 116.343 69.4449 116.348L69.3217 114.317C68.5602 95.2142 68.3039 83.2192 68.3089 74.2597C68.3089 64.6607 68.5947 58.5358 68.8683 50.8232C70.99 52.5505 77.4736 57.889 77.4834 57.889L78.171 58.4647L78.0971 57.568C76.8033 42.8315 72.4341 28.7392 69.4696 20.696C68.4912 18.0574 67.5055 15.7495 66.5568 13.7503C63.3482 6.96635 60.5488 1.62786 60.4231 1.38042L60.0905 0.738525L59.7528 1.38042C59.6247 1.62786 56.8277 6.96635 53.6118 13.7503C52.6705 15.7495 51.6847 18.0574 50.7064 20.696C47.7468 28.7392 43.3776 42.8315 42.0789 57.568L41.9976 58.4574L42.6925 57.889C42.6925 57.889 49.1835 52.5456 51.3126 50.8232C51.5812 58.5358 51.872 64.6607 51.872 74.2597C51.872 83.2192 51.6207 95.2143 50.8543 114.329L50.7311 116.348C50.0632 116.073 48.8755 115.463 48.8755 115.463C48.8631 115.453 46.6182 114.353 46.2017 114.013C45.6842 113.606 45.2554 113.244 45.0139 112.781C44.8168 112.393 44.7207 112.08 44.6098 111.573C44.4397 110.784 44.1021 109.956 43.9074 108.971C41.6378 97.8455 36.034 82.1608 32.1897 74.022C35.4795 75.3719 40.2874 77.9714 42.9291 79.5197L43.8483 80.0563L43.4713 79.0763C43.454 79.0126 34.272 54.8633 1.3614 40.8543L0.301758 40.406L0.898117 41.3958C0.898117 41.3958 4.93956 48.1111 9.4985 56.9212C14.0722 65.7215 19.1437 76.6043 21.1891 84.8582C23.094 92.5168 28.9492 117.34 28.9492 138.368C28.9492 140.48 28.8925 142.56 28.7619 144.574L29.4716 144.77C29.4716 144.77 30.5879 142.611 32 140.098C33.1927 137.966 34.6146 135.573 35.7112 134.054L42.6925 188.859L43.4392 188.842L46.076 147.81L59.7134 236.261H60.4601L74.1 147.805L76.7318 188.842L77.4834 188.859L84.4697 134.054C85.5614 135.573 86.9808 137.966 88.1735 140.098C89.5881 142.611 90.7019 144.762 90.7019 144.77L91.4141 144.574C91.2835 142.56 91.2243 140.48 91.2243 138.368C91.2243 117.34 97.082 92.5119 98.9844 84.8582C101.032 76.6043 106.106 65.7215 110.67 56.9212C115.236 48.1111 119.278 41.4056 119.28 41.3958L119.879 40.4011L118.812 40.8543ZM60.0905 221.574L53.8114 165.278H66.3621L60.0905 221.574ZM67.0915 158.842L66.6282 163.402H53.5453L53.082 158.842L53.0623 158.644H67.1162L67.0915 158.842ZM54.563 156.775V153.259H65.6129V156.775H54.563ZM67.1309 151.392H53.0475V146.583H67.1309V151.392ZM112.001 48.4835C95.3742 73.7378 91.0321 101.712 87.7251 129.051L87.6314 129.847L83.9424 126.647L67.1285 135.176L67.0915 144.603H53.0845L53.0475 135.176L36.2386 126.647L32.5396 129.847L32.4485 129.051C29.1365 101.712 24.7993 73.7378 8.17271 48.4835L7.92382 48.1038L8.34028 48.3047C9.59461 48.9098 10.775 49.5101 11.916 50.1128C22.0935 55.4855 28.1039 60.998 35.9133 71.7362L35.9354 71.7558L37.7837 73.9387C35.758 72.9979 32.9537 71.6382 30.1986 70.6386C29.2301 70.2858 27.3449 69.7591 27.3449 69.7591C27.7343 70.401 28.5031 71.7166 28.7742 72.209C34.6762 83.0452 38.6314 102.464 40.5831 112.046C40.8098 113.141 40.9946 114.101 41.1671 114.878C41.2879 115.444 41.4875 115.782 41.7881 116.188C42.1529 116.664 42.6482 116.933 42.8429 117.048L47.9193 119.349L50.3319 120.454C50.5413 120.544 50.8592 120.657 51.2634 120.672H51.2954C51.6749 120.672 52.2368 120.564 52.7148 120.062C52.7567 120.018 52.7764 119.981 52.8159 119.932C53.257 119.432 53.3851 118.969 53.4344 118.322C53.5108 117.519 53.5749 116.669 53.6365 115.796C53.8262 113.234 53.9741 110.402 54.0973 107.369C54.7553 91.3213 54.5975 69.9771 54.4891 56.9261C54.4522 52.6044 54.4226 48.8731 54.4226 46.0483V45.9944L54.4645 45.9601C55.3319 45.0609 56.6947 43.6938 57.084 43.292C56.5419 43.4954 55.4502 44.0074 54.0406 44.8576C53.3038 45.3059 52.4733 45.8449 51.5812 46.4721C50.3614 47.3418 49.0258 48.3978 47.663 49.6301C47.3402 49.9241 47.0124 50.2353 46.6872 50.544L46.3964 50.8282L46.4777 50.4288C48.1608 41.8564 49.3806 35.3468 51.219 29.1582C51.9977 26.5416 52.8824 23.9765 53.9642 21.3403C55.5044 17.5747 57.429 12.1627 59.9894 7.71604L60.0905 7.54699L60.1841 7.71604C62.7519 12.1627 64.6691 17.5747 66.2167 21.3403C67.2887 23.9765 68.1832 26.5416 68.9545 29.1582C70.788 35.3468 72.0176 41.8564 73.7032 50.4288L73.7771 50.8282L73.4888 50.544C73.1635 50.2353 72.8407 49.9241 72.5105 49.6301C71.1477 48.3978 69.8146 47.3418 68.5947 46.4721C67.7002 45.8449 66.8771 45.3059 66.1354 44.8576C64.7209 44.0074 63.6366 43.4954 63.092 43.292C63.4863 43.6938 64.8441 45.0609 65.7164 45.9601L65.7509 45.9944V46.0483C65.7608 48.8731 65.7288 52.6044 65.6918 56.9261C65.5809 69.9771 65.4257 91.3213 66.0787 107.369C66.2068 110.402 66.3522 113.234 66.5395 115.796C66.606 116.669 66.6701 117.519 66.7391 118.322C66.7884 118.969 66.9239 119.432 67.3601 119.932C67.3996 119.981 67.4291 120.018 67.4612 120.062C67.9392 120.564 68.4986 120.672 68.8806 120.672H68.9151C69.3143 120.657 69.6347 120.544 69.8392 120.454L72.2567 119.349L77.3257 117.048C77.5327 116.933 78.028 116.664 78.3804 116.188C78.6934 115.782 78.893 115.444 79.0138 114.878C79.1764 114.101 79.3711 113.141 79.5929 112.046C81.5446 102.464 85.5047 83.0452 91.4018 72.209C91.6778 71.7166 92.4442 70.401 92.8311 69.7591C92.8311 69.7591 90.9508 70.2858 89.975 70.6386C87.2248 71.6382 84.4204 72.9979 82.3972 73.9387L84.2455 71.7558L84.2627 71.7362C92.0745 60.998 98.0874 55.4855 108.258 50.1128C109.403 49.5101 110.584 48.9098 111.836 48.3047L112.252 48.1038L112.001 48.4835Z"
    fill="#FFC627" />
  <path fill-rule="evenodd" clip-rule="evenodd"
    d="M118.812 40.8543C85.9015 54.8633 76.722 79.0126 76.7047 79.0763L76.3326 80.0563L77.2493 79.5197C79.8935 77.9714 84.6964 75.3719 87.9912 74.022C84.1469 82.1608 78.5332 97.8455 76.2685 108.971C76.0689 109.956 75.7412 110.784 75.5712 111.568C75.4603 112.08 75.3641 112.393 75.1596 112.781C74.9206 113.244 74.4893 113.606 73.9743 114.013C73.5627 114.353 71.3178 115.451 71.3129 115.453C71.303 115.463 70.8052 115.72 70.268 115.975C69.9895 116.108 69.7111 116.237 69.4819 116.333C69.4696 116.338 69.4523 116.343 69.4449 116.348L69.3217 114.317C68.5602 95.2142 68.3039 83.2192 68.3089 74.2597C68.3089 64.6607 68.5947 58.5358 68.8683 50.8232C70.99 52.5505 77.4736 57.889 77.4834 57.889L78.171 58.4647L78.0971 57.568C76.8033 42.8315 72.4341 28.7392 69.4696 20.696C68.4912 18.0574 67.5055 15.7495 66.5568 13.7503C63.3482 6.96635 60.5488 1.62786 60.4231 1.38042L60.0905 0.738525L59.7528 1.38042C59.6247 1.62786 56.8277 6.96635 53.6118 13.7503C52.6705 15.7495 51.6847 18.0574 50.7064 20.696C47.7468 28.7392 43.3776 42.8315 42.0789 57.568L41.9976 58.4574L42.6925 57.889C42.6925 57.889 49.1835 52.5456 51.3126 50.8232C51.5812 58.5358 51.872 64.6607 51.872 74.2597C51.872 83.2192 51.6207 95.2143 50.8543 114.329L50.7311 116.348C50.0632 116.073 48.8755 115.463 48.8755 115.463C48.8631 115.453 46.6182 114.353 46.2017 114.013C45.6842 113.606 45.2554 113.244 45.0139 112.781C44.8168 112.393 44.7207 112.08 44.6098 111.573C44.4397 110.784 44.1021 109.956 43.9074 108.971C41.6378 97.8455 36.034 82.1608 32.1897 74.022C35.4795 75.3719 40.2874 77.9714 42.9291 79.5197L43.8483 80.0563L43.4713 79.0763C43.454 79.0126 34.272 54.8633 1.3614 40.8543L0.301758 40.406L0.898117 41.3958C0.898117 41.3958 4.93956 48.1111 9.4985 56.9212C14.0722 65.7215 19.1437 76.6043 21.1891 84.8582C23.094 92.5168 28.9492 117.34 28.9492 138.368C28.9492 140.48 28.8925 142.56 28.7619 144.574L29.4716 144.77C29.4716 144.77 30.5879 142.611 32 140.098C33.1927 137.966 34.6146 135.573 35.7112 134.054L42.6925 188.859L43.4392 188.842L46.076 147.81L59.7134 236.261H60.4601L74.1 147.805L76.7318 188.842L77.4834 188.859L84.4697 134.054C85.5614 135.573 86.9808 137.966 88.1735 140.098C89.5881 142.611 90.7019 144.762 90.7019 144.77L91.4141 144.574C91.2835 142.56 91.2243 140.48 91.2243 138.368C91.2243 117.34 97.082 92.5119 98.9844 84.8582C101.032 76.6043 106.106 65.7215 110.67 56.9212C115.236 48.1111 119.278 41.4056 119.28 41.3958L119.879 40.4011L118.812 40.8543ZM60.0905 221.574L53.8114 165.278H66.3621L60.0905 221.574ZM67.0915 158.842L66.6282 163.402H53.5453L53.082 158.842L53.0623 158.644H67.1162L67.0915 158.842ZM54.563 156.775V153.259H65.6129V156.775H54.563ZM67.1309 151.392H53.0475V146.583H67.1309V151.392ZM112.001 48.4835C95.3742 73.7378 91.0321 101.712 87.7251 129.051L87.6314 129.847L83.9424 126.647L67.1285 135.176L67.0915 144.603H53.0845L53.0475 135.176L36.2386 126.647L32.5396 129.847L32.4485 129.051C29.1365 101.712 24.7993 73.7378 8.17271 48.4835L7.92382 48.1038L8.34028 48.3047C9.59461 48.9098 10.775 49.5101 11.916 50.1128C22.0935 55.4855 28.1039 60.998 35.9133 71.7362L35.9354 71.7558L37.7837 73.9387C35.758 72.9979 32.9537 71.6382 30.1986 70.6386C29.2301 70.2858 27.3449 69.7591 27.3449 69.7591C27.7343 70.401 28.5031 71.7166 28.7742 72.209C34.6762 83.0452 38.6314 102.464 40.5831 112.046C40.8098 113.141 40.9946 114.101 41.1671 114.878C41.2879 115.444 41.4875 115.782 41.7881 116.188C42.1529 116.664 42.6482 116.933 42.8429 117.048L47.9193 119.349L50.3319 120.454C50.5413 120.544 50.8592 120.657 51.2634 120.672H51.2954C51.6749 120.672 52.2368 120.564 52.7148 120.062C52.7567 120.018 52.7764 119.981 52.8159 119.932C53.257 119.432 53.3851 118.969 53.4344 118.322C53.5108 117.519 53.5749 116.669 53.6365 115.796C53.8262 113.234 53.9741 110.402 54.0973 107.369C54.7553 91.3213 54.5975 69.9771 54.4891 56.9261C54.4522 52.6044 54.4226 48.8731 54.4226 46.0483V45.9944L54.4645 45.9601C55.3319 45.0609 56.6947 43.6938 57.084 43.292C56.5419 43.4954 55.4502 44.0074 54.0406 44.8576C53.3038 45.3059 52.4733 45.8449 51.5812 46.4721C50.3614 47.3418 49.0258 48.3978 47.663 49.6301C47.3402 49.9241 47.0124 50.2353 46.6872 50.544L46.3964 50.8282L46.4777 50.4288C48.1608 41.8564 49.3806 35.3468 51.219 29.1582C51.9977 26.5416 52.8824 23.9765 53.9642 21.3403C55.5044 17.5747 57.429 12.1627 59.9894 7.71604L60.0905 7.54699L60.1841 7.71604C62.7519 12.1627 64.6691 17.5747 66.2167 21.3403C67.2887 23.9765 68.1832 26.5416 68.9545 29.1582C70.788 35.3468 72.0176 41.8564 73.7032 50.4288L73.7771 50.8282L73.4888 50.544C73.1635 50.2353 72.8407 49.9241 72.5105 49.6301C71.1477 48.3978 69.8146 47.3418 68.5947 46.4721C67.7002 45.8449 66.8771 45.3059 66.1354 44.8576C64.7209 44.0074 63.6366 43.4954 63.092 43.292C63.4863 43.6938 64.8441 45.0609 65.7164 45.9601L65.7509 45.9944V46.0483C65.7608 48.8731 65.7288 52.6044 65.6918 56.9261C65.5809 69.9771 65.4257 91.3213 66.0787 107.369C66.2068 110.402 66.3522 113.234 66.5395 115.796C66.606 116.669 66.6701 117.519 66.7391 118.322C66.7884 118.969 66.9239 119.432 67.3601 119.932C67.3996 119.981 67.4291 120.018 67.4612 120.062C67.9392 120.564 68.4986 120.672 68.8806 120.672H68.9151C69.3143 120.657 69.6347 120.544 69.8392 120.454L72.2567 119.349L77.3257 117.048C77.5327 116.933 78.028 116.664 78.3804 116.188C78.6934 115.782 78.893 115.444 79.0138 114.878C79.1764 114.101 79.3711 113.141 79.5929 112.046C81.5446 102.464 85.5047 83.0452 91.4018 72.209C91.6778 71.7166 92.4442 70.401 92.8311 69.7591C92.8311 69.7591 90.9508 70.2858 89.975 70.6386C87.2248 71.6382 84.4204 72.9979 82.3972 73.9387L84.2455 71.7558L84.2627 71.7362C92.0745 60.998 98.0874 55.4855 108.258 50.1128C109.403 49.5101 110.584 48.9098 111.836 48.3047L112.252 48.1038L112.001 48.4835Z"
    fill="#8C1D40" />
  <path fill-rule="evenodd" clip-rule="evenodd"
    d="M112.252 48.1039L112.001 48.4837C95.3744 73.7379 91.0323 101.712 87.7252 129.051L87.6316 129.847L83.9425 126.647L67.1287 135.176L67.0917 144.603H53.0847L53.0477 135.176L36.2387 126.647L32.5398 129.847L32.4487 129.051C29.1367 101.712 24.7995 73.7379 8.1729 48.4837L7.92401 48.1039L8.34048 48.3048C9.5948 48.91 10.7752 49.5102 11.9162 50.1129C22.0937 55.4857 28.1041 60.9981 35.9135 71.7363L35.9356 71.7559L37.7839 73.9388C35.7582 72.9981 32.9538 71.6383 30.1988 70.6387C29.2303 70.2859 27.3451 69.7592 27.3451 69.7592C27.7345 70.4011 28.5033 71.7167 28.7744 72.2092C34.6764 83.0454 38.6316 102.464 40.5833 112.046C40.81 113.141 40.9948 114.101 41.1673 114.878C41.2881 115.444 41.4877 115.782 41.7883 116.189C42.1531 116.664 42.6484 116.933 42.8431 117.049L47.9195 119.349L50.332 120.454C50.5415 120.545 50.8594 120.657 51.2635 120.672H51.2956C51.6751 120.672 52.2369 120.564 52.715 120.062C52.7569 120.018 52.7766 119.981 52.8161 119.932C53.2572 119.432 53.3853 118.969 53.4346 118.322C53.511 117.519 53.5751 116.669 53.6367 115.797C53.8264 113.234 53.9743 110.402 54.0975 107.369C54.7554 91.3214 54.5977 69.9772 54.4893 56.9263C54.4523 52.6045 54.4228 48.8732 54.4228 46.0484V45.9945L54.4647 45.9602C55.3321 45.0611 56.6948 43.694 57.0842 43.2922C56.5421 43.4955 55.4504 44.0076 54.0408 44.8577C53.304 45.3061 52.4735 45.845 51.5814 46.4722C50.3616 47.342 49.026 48.3979 47.6632 49.6302C47.3404 49.9242 47.0126 50.2354 46.6873 50.5441L46.3966 50.8283L46.4779 50.4289C48.161 41.8565 49.3808 35.3469 51.2192 29.1583C51.9979 26.5417 52.8826 23.9766 53.9644 21.3404C55.5046 17.5748 57.4292 12.1629 59.9896 7.71617L60.0906 7.54712L60.1843 7.71617C62.7521 12.1629 64.6693 17.5748 66.2169 21.3404C67.2888 23.9766 68.1834 26.5417 68.9547 29.1583C70.7881 35.3469 72.0178 41.8565 73.7034 50.4289L73.7773 50.8283L73.489 50.5441C73.1637 50.2354 72.8409 49.9242 72.5107 49.6302C71.1479 48.3979 69.8148 47.342 68.5949 46.4722C67.7004 45.845 66.8773 45.3061 66.1356 44.8577C64.7211 44.0076 63.6368 43.4955 63.0922 43.2922C63.4864 43.694 64.8443 45.0611 65.7166 45.9602L65.7511 45.9945V46.0484C65.761 48.8732 65.729 52.6045 65.692 56.9263C65.5811 69.9772 65.4258 91.3214 66.0789 107.369C66.207 110.402 66.3524 113.234 66.5397 115.797C66.6062 116.669 66.6703 117.519 66.7393 118.322C66.7886 118.969 66.9241 119.432 67.3603 119.932C67.3997 119.981 67.4293 120.018 67.4613 120.062C67.9394 120.564 68.4988 120.672 68.8808 120.672H68.9153C69.3145 120.657 69.6349 120.545 69.8394 120.454L72.2569 119.349L77.3259 117.049C77.5329 116.933 78.0282 116.664 78.3806 116.189C78.6936 115.782 78.8932 115.444 79.014 114.878C79.1766 114.101 79.3713 113.141 79.5931 112.046C81.5448 102.464 85.5049 83.0454 91.402 72.2092C91.678 71.7167 92.4444 70.4011 92.8313 69.7592C92.8313 69.7592 90.951 70.2859 89.9751 70.6387C87.225 71.6383 84.4206 72.9981 82.3974 73.9388L84.2457 71.7559L84.2629 71.7363C92.0747 60.9981 98.0876 55.4857 108.258 50.1129C109.404 49.5102 110.584 48.91 111.836 48.3048L112.252 48.1039Z"
    fill="#FFC627" />
  <path d="M67.1313 146.582H53.0479V151.392H67.1313V146.582Z" fill="#FFC627" />
  <path d="M65.6124 153.259H54.5625V156.775H65.6124V153.259Z" fill="#FFC627" />
  <path fill-rule="evenodd" clip-rule="evenodd"
    d="M67.1164 158.644L67.0917 158.842L66.6284 163.402H53.5455L53.0822 158.842L53.0625 158.644H67.1164Z"
    fill="#FFC627" />
  <path fill-rule="evenodd" clip-rule="evenodd" d="M66.3622 165.279L60.0905 221.574L53.8115 165.279H66.3622Z"
    fill="#FFC627" />
  <path fill-rule="evenodd" clip-rule="evenodd"
    d="M77.6118 190.106C77.3481 189.847 77.0327 189.717 76.6631 189.717C76.2934 189.717 76.0051 189.837 75.7414 190.077C75.463 190.334 75.325 190.658 75.325 191.047C75.325 191.437 75.4531 191.736 75.7118 191.993C75.9706 192.25 76.2885 192.377 76.6631 192.377C77.0376 192.377 77.3407 192.253 77.602 192.003C77.8706 191.743 78.0036 191.424 78.0036 191.047C78.0036 190.67 77.873 190.366 77.6118 190.106ZM77.4442 191.831C77.2274 192.047 76.9686 192.155 76.6631 192.155C76.3575 192.155 76.0987 192.047 75.8819 191.834C75.665 191.618 75.5566 191.356 75.5566 191.047C75.5566 190.738 75.6626 190.493 75.877 190.275C76.0938 190.055 76.3575 189.942 76.6631 189.942C76.9686 189.942 77.2274 190.055 77.4442 190.275C77.6611 190.493 77.7671 190.751 77.7671 191.047C77.7671 191.344 77.6586 191.613 77.4442 191.831ZM77.2717 191.701C77.2717 191.701 77.2668 191.674 77.2668 191.66V191.527C77.2668 191.375 77.2225 191.268 77.1362 191.197C77.0894 191.157 77.0204 191.13 76.9267 191.111C77.0278 191.101 77.114 191.067 77.183 191.013C77.252 190.956 77.2865 190.868 77.2865 190.743C77.2865 190.582 77.2225 190.464 77.0894 190.391C77.013 190.349 76.9144 190.324 76.7961 190.315C76.7764 190.315 76.6729 190.315 76.4906 190.315H76.0766V191.789H76.4659V191.268H76.5472L76.6335 191.273C76.6926 191.277 76.737 191.285 76.7666 191.297C76.8183 191.317 76.8553 191.353 76.875 191.405C76.8873 191.437 76.8947 191.495 76.8996 191.586C76.9046 191.674 76.912 191.743 76.9243 191.789H77.2939L77.2816 191.748C77.2767 191.733 77.2717 191.718 77.2717 191.704V191.701ZM76.8306 190.944C76.7789 190.981 76.7074 191.001 76.6162 191.001H76.4659V190.572H76.5596C76.6581 190.572 76.7321 190.582 76.7863 190.604C76.8651 190.633 76.9046 190.689 76.9046 190.77C76.9046 190.851 76.8799 190.91 76.8306 190.944ZM77.2816 191.745C77.2767 191.731 77.2717 191.716 77.2717 191.701C77.2693 191.689 77.2668 191.674 77.2668 191.66V191.527C77.2668 191.375 77.2225 191.268 77.1362 191.197C77.0894 191.157 77.0204 191.13 76.9267 191.111C77.0278 191.101 77.114 191.067 77.183 191.013C77.252 190.956 77.2865 190.868 77.2865 190.743C77.2865 190.582 77.2225 190.464 77.0894 190.391C77.013 190.349 76.9144 190.324 76.7961 190.315C76.7764 190.315 76.6729 190.315 76.4906 190.315H76.0766V191.789H76.4659V191.268H76.5472L76.6335 191.273C76.6926 191.277 76.737 191.285 76.7666 191.297C76.8183 191.317 76.8553 191.353 76.875 191.405C76.8873 191.437 76.8947 191.495 76.8996 191.586C76.9046 191.674 76.912 191.743 76.9243 191.789H77.2939L77.2816 191.748V191.745ZM76.8306 190.944C76.7789 190.981 76.7074 191.001 76.6162 191.001H76.4659V190.572H76.5596C76.6581 190.572 76.7321 190.582 76.7863 190.604C76.8651 190.633 76.9046 190.689 76.9046 190.77C76.9046 190.851 76.8799 190.91 76.8306 190.944ZM77.2816 191.745C77.2767 191.731 77.2717 191.716 77.2717 191.701C77.2693 191.689 77.2668 191.674 77.2668 191.66V191.527C77.2668 191.375 77.2225 191.268 77.1362 191.197C77.0894 191.157 77.0204 191.13 76.9267 191.111C77.0278 191.101 77.114 191.067 77.183 191.013C77.252 190.956 77.2865 190.868 77.2865 190.743C77.2865 190.582 77.2225 190.464 77.0894 190.391C77.013 190.349 76.9144 190.324 76.7961 190.315C76.7764 190.315 76.6729 190.315 76.4906 190.315H76.0766V191.789H76.4659V191.268H76.5472L76.6335 191.273C76.6926 191.277 76.737 191.285 76.7666 191.297C76.8183 191.317 76.8553 191.353 76.875 191.405C76.8873 191.437 76.8947 191.495 76.8996 191.586C76.9046 191.674 76.912 191.743 76.9243 191.789H77.2939L77.2816 191.748V191.745ZM76.8306 190.944C76.7789 190.981 76.7074 191.001 76.6162 191.001H76.4659V190.572H76.5596C76.6581 190.572 76.7321 190.582 76.7863 190.604C76.8651 190.633 76.9046 190.689 76.9046 190.77C76.9046 190.851 76.8799 190.91 76.8306 190.944Z"
    fill="#8C1D40" />
</svg>
