<svg width="1920" height="281" viewBox="0 0 1920 281" fill="none" xmlns="http://www.w3.org/2000/svg">
  <g clip-path="url(#clip0_5214_12501)">
    <g opacity="0.6">
      <path d="M1595.63 17.3646L1607.1 20.0942" stroke="#D0D0D0" stroke-width="2" stroke-linecap="round"
        stroke-linejoin="round" />
      <path
        d="M1570.04 111.076L1580.21 108.601L1598.82 105.285L1608.13 105.14L1613.12 106.986L1622.59 115.591L1630.05 127.607L1638.64 149.87L1642.85 154.828L1652.41 160.636C1695.28 172.626 1685.63 174.862 1716.08 203.086L1724.41 212.219L1728.17 213.801C1756.61 217.458 1781.21 220.664 1807.66 207.874L1820.78 201.011L1826.09 196.36"
        stroke="#D0D0D0" stroke-width="2" stroke-linecap="round" stroke-linejoin="round" />
      <path
        d="M1567.9 117.845L1579.44 114.741L1596.75 110.37L1602.49 109.665L1613.02 113.372L1619.43 116.502L1630.24 146.018C1639.17 170.449 1657.11 165.373 1676.63 174.897L1685.21 179.778L1698.03 192.644L1710.62 205.621L1719.2 217.679L1724.92 221.115L1749.81 224.848L1780.99 228.445L1808.42 216.106L1824.07 207.534L1839.1 197.032L1841.61 195.884"
        stroke="#D0D0D0" stroke-width="2" stroke-linecap="round" stroke-linejoin="round" />
      <path
        d="M1572.91 122.717L1594.16 117.36L1601.36 116.807L1610.81 119.358L1615.89 121.995L1624.55 148.628L1628.42 157.056L1633.59 163.51L1639.84 168.085L1652.56 173.553L1675.12 180.007L1680.62 182.992L1689.02 190.441L1702 204.881L1707.95 211.803L1711.84 219.669L1720.26 229.593L1729.96 231.48L1733.92 234.074L1742.91 236.838L1762.19 240.384L1773.42 240.188L1779.52 239.04L1796.81 231.081L1813.13 222.756L1826.6 215.459L1835.51 207.228L1846.54 199.396L1865.17 191.929L1890.48 186.368L1903.46 183.987L1934.96 184.115L1942.91 184.599L1959.29 187.822L1963.16 189.634"
        stroke="#D0D0D0" stroke-width="2" stroke-linecap="round" stroke-linejoin="round" />
      <path
        d="M1574.18 128.483L1591.93 123.908L1612.69 127.046L1618.75 151.026L1623.14 160.585L1629.19 167.736L1636.32 173.017L1643.48 176.614L1672.15 184.956L1677.02 187.133L1684.66 193.554L1697.2 207.644L1701.92 214.303L1705.86 224.074L1714.48 238.598L1732.91 247.501L1748.33 252.833L1752.46 253.412L1773.65 250.291L1801.63 238.53L1819.96 229.822L1833.91 225.341L1846.12 215.315L1863.38 205.442L1871.59 198.086L1891.38 193.12L1906.61 190.254L1937.57 190.373L1956.76 193.128L1962.72 192.873L1968.91 195.544"
        stroke="#D0D0D0" stroke-width="2" stroke-linecap="round" stroke-linejoin="round" />
      <path d="M1533.37 86.5508L1543.94 85.5474" stroke="#D0D0D0" stroke-width="2" stroke-linecap="round"
        stroke-linejoin="round" />
      <path d="M1526.66 92.9456L1530.65 94.4253L1549.17 90.3181L1566.75 87.75" stroke="#D0D0D0" stroke-width="2"
        stroke-linecap="round" stroke-linejoin="round" />
      <path
        d="M1525.04 97.8269L1527.58 99.145L1533.58 100.803L1550.71 98.4479L1568.94 93.099L1583.37 90.8709L1586.63 90.7605"
        stroke="#D0D0D0" stroke-width="2" stroke-linecap="round" stroke-linejoin="round" />
      <path
        d="M1518.79 100.429L1528.8 102.997L1540.47 106.186L1560.47 101.679L1578.07 98.5497L1592.21 95.0886L1598.71 94.8505"
        stroke="#D0D0D0" stroke-width="2" stroke-linecap="round" stroke-linejoin="round" />
      <path
        d="M1494.86 12.3896L1499.71 15.1278L1516.94 16.0293L1539.79 20.6978L1558.72 24.686L1576.72 26.6164L1610.51 28.7253L1618.98 33.9467L1650.47 38.2241"
        stroke="#D0D0D0" stroke-width="2" stroke-linecap="round" stroke-linejoin="round" />
      <path d="M1619.62 38.3348L1625.7 41.3366L1653.51 44.8232" stroke="#D0D0D0" stroke-width="2" stroke-linecap="round"
        stroke-linejoin="round" />
      <path d="M1623.78 44.9762L1629.52 47.8589L1656.88 51.5581" stroke="#D0D0D0" stroke-width="2"
        stroke-linecap="round" stroke-linejoin="round" />
      <path d="M1627.59 52.0601L1627.92 52.1791L1633.35 54.3731L1659.92 58.1572" stroke="#D0D0D0" stroke-width="2"
        stroke-linecap="round" stroke-linejoin="round" />
      <path d="M1638.67 66.5503L1640.99 67.4092" stroke="#D0D0D0" stroke-width="2" stroke-linecap="round"
        stroke-linejoin="round" />
      <path d="M1639.84 72.0864L1644.82 73.9316" stroke="#D0D0D0" stroke-width="2" stroke-linecap="round"
        stroke-linejoin="round" />
      <path d="M1644.22 78.6174L1648.65 80.4456L1691.06 86.8745" stroke="#D0D0D0" stroke-width="2"
        stroke-linecap="round" stroke-linejoin="round" />
      <path d="M1645.38 84.1533L1652.47 86.9596L1662.81 89.6552L1691.86 93.4053" stroke="#D0D0D0" stroke-width="2"
        stroke-linecap="round" stroke-linejoin="round" />
      <path d="M1658.89 99.7318L1660 100.327L1670.9 103.04L1693.67 106.365" stroke="#D0D0D0" stroke-width="2"
        stroke-linecap="round" stroke-linejoin="round" />
      <path d="M1661.28 105.531L1663.82 106.849L1675.05 109.681L1694.59 112.564" stroke="#D0D0D0" stroke-width="2"
        stroke-linecap="round" stroke-linejoin="round" />
      <path d="M1658.92 109.375L1667.65 113.364L1678.99 116.425L1704.19 120.838" stroke="#D0D0D0" stroke-width="2"
        stroke-linecap="round" stroke-linejoin="round" />
      <path d="M1657.52 117.743L1658.73 118.568L1673.86 122.088L1693.51 125.201L1711.54 129.605" stroke="#D0D0D0"
        stroke-width="2" stroke-linecap="round" stroke-linejoin="round" />
      <path
        d="M1659.79 127.463L1665.43 133.143L1678.64 137.276L1702.88 147.378L1735.41 153.935L1758.93 158.289L1779.78 162.226L1809.2 168.008L1812.12 167.77"
        stroke="#D0D0D0" stroke-width="2" stroke-linecap="round" stroke-linejoin="round" />
      <path
        d="M1652.53 126.102L1655.16 128.211L1660.8 137.48L1677.21 143.178L1687.59 148.34L1700.3 157.387L1719.89 162.175L1751.63 168.817L1784.96 175.288L1797.71 176.606L1803.45 175.892L1807.32 174.114L1808.44 174.148"
        stroke="#D0D0D0" stroke-width="2" stroke-linecap="round" stroke-linejoin="round" />
      <path
        d="M1644.52 124.274L1649.42 128.917L1654.23 139.394L1658.69 143.688L1682.21 151.63L1695.38 160.474L1703.67 167.694L1712.67 173.485L1727.68 177.899C1746.79 180.756 1796.07 194.387 1812.3 179.54L1814.32 179.157"
        stroke="#D0D0D0" stroke-width="2" stroke-linecap="round" stroke-linejoin="round" />
      <path
        d="M1638.48 123.738L1641.2 126.629C1652.41 158.238 1658.83 145.584 1682 158.357L1695.5 167.32L1709.4 181.343L1714.83 186.564L1722.69 189.846L1741.19 193.477L1766.34 195.978L1790.24 195.748L1799.38 194.03L1810.98 189.251L1819.69 183.588L1822.5 183.12"
        stroke="#D0D0D0" stroke-width="2" stroke-linecap="round" stroke-linejoin="round" />
      <path
        d="M1457.4 22.7222L1466.75 38.2841L1480.75 49.5004L1491.16 63.7527L1497.51 68.5573L1517.39 78.1836L1522.7 80.148L1539 78.9914L1566.95 78.5662L1584.54 79.0254L1607.7 80.7858L1612.35 82.5118L1641.36 107.794L1653.13 118.389L1668.85 127.99L1687.89 132.191L1717.57 140.346L1750.32 147.353L1769.35 152.124L1787.25 156.86L1811.48 163.374L1835.58 160.568"
        stroke="#D0D0D0" stroke-width="2" stroke-linecap="round" stroke-linejoin="round" />
      <path
        d="M1533.23 626.786L1516.62 609.872L1496.53 589.59L1475.45 568.943L1463.39 557.106L1441.67 538.678L1420.71 527.896L1394.2 515.251L1380.02 506.602L1364.85 500.616L1337.87 481.559L1334.22 476.618L1331.35 464.976L1328.87 441.566L1330.36 426.812L1334.46 411.131C1345.93 380.322 1350.19 363.11 1349.23 329.852L1349.08 310.327L1348.81 291.143L1347.62 265.751L1344.33 239.398L1343.49 217.16L1343.99 198.443L1343.52 185.424L1339.77 166.461L1334.68 147.004L1329.34 114.979L1330.82 100.225L1333.39 80.0118L1349.05 64.2544L1375.73 40.682L1392.44 26.6508L1406.75 14.5585"
        stroke="#D0D0D0" stroke-width="2" stroke-linecap="round" stroke-linejoin="round" />
      <path
        d="M1479.65 31.5232L1502.56 47.7484L1512.62 55.81L1534.97 58.2251L1566.1 59.9173L1584.69 60.7507L1608.2 62.0773L1612.96 64.0245L1635.36 82.1375L1646 89.102L1656.17 93.8132L1666.97 96.2964"
        stroke="#D0D0D0" stroke-width="2" stroke-linecap="round" stroke-linejoin="round" />
      <path
        d="M1465.44 676.158L1454.55 666.277L1437.63 651.701L1428.41 618.426L1425.83 608.026L1423.31 602.558L1400.86 582.541L1383.74 564.487L1371.48 551.638L1355.49 543.262L1330.17 521.798L1316.68 512.274L1298.46 503.821L1283.16 491.55L1274.02 483.064L1259.74 473.625L1257.68 467.953L1257.82 463.471L1261.58 458.437L1285.66 394.395L1291.33 371.92L1294.76 345.796L1296.51 319.605L1297.19 298.881L1298.46 270.436L1298.05 234.754L1297.39 210.51L1296.75 188.732L1294.78 166.469L1290.92 147.276L1288.88 130.83L1285.45 111.986L1285.94 93.8302L1287.45 74.9264L1289.88 65.8104L1297.68 46.7792L1303.32 35.6307L1307.73 30.8432L1322.57 22.9176"
        stroke="#D0D0D0" stroke-width="2" stroke-linecap="round" stroke-linejoin="round" />
      <path
        d="M1483.55 15.3833L1490.92 23.0282L1511.43 37.0424L1534.47 39.1428L1553.27 40.4268L1577.12 41.8811L1597.38 42.7739L1610.25 43.7519L1631.09 58.4464L1637.18 60.8954L1662.95 64.7646"
        stroke="#D0D0D0" stroke-width="2" stroke-linecap="round" stroke-linejoin="round" />
      <path
        d="M1247.01 492.724L1240.35 469.849L1235.48 450.852L1230.74 430.961L1232.86 417.568L1237.49 399.438L1243.64 382.813L1243.27 370.015L1244.29 349.419L1245.44 330.949L1244 309.817L1243.09 293.413L1246.78 255.852L1250.57 232.314L1252.9 219.371L1253.27 190.79L1251.84 179.863L1245.08 153.178L1243.92 144.054L1246.03 127.633L1248.78 101.816L1246.84 89.1959L1246.28 78.9659L1253.32 48.6927L1257.97 30.0013L1260 15.8256"
        stroke="#D0D0D0" stroke-width="2" stroke-linecap="round" stroke-linejoin="round" />
      <path d="M1538.94 12.2623L1557.19 16.5568L1572.99 20.3239L1582.8 22.4413L1611.65 25.1795L1614.95 26.9653"
        stroke="#D0D0D0" stroke-width="2" stroke-linecap="round" stroke-linejoin="round" />
      <path
        d="M1206.58 394.616L1205.27 369.564L1203.71 355.38L1204.59 338.696L1207.31 310.412L1209.83 291.321L1212.31 273.906L1216.1 257.544L1216.62 248.471L1215.67 239.806L1211.56 211.072L1212.61 189.353L1211.71 179.004L1202.77 154.148L1201.08 143.883L1200.86 126.604L1205.69 98.7285L1206.9 79.1443L1211.35 63.0212L1215.89 47.6975L1229.79 27.5096L1237.92 15.2217"
        stroke="#D0D0D0" stroke-width="2" stroke-linecap="round" stroke-linejoin="round" />
      <path
        d="M1154.13 650.741L1130.69 630.349L1120.06 622.823L1098.98 611.819L1083.98 604.378L1071.1 600.365L1063.58 593.613L1058.45 589.633L1040.77 571.001L1030.29 555.405L1028.73 551.434L1046.82 522.972L1055.65 500.156L1063.11 473.82L1070.42 449.5L1077.71 432.356L1085.53 412.755L1092.42 390.552L1095.89 377.099L1098.34 343.415L1100.16 328.78L1114.77 310.761L1130.17 292.64L1144.71 276.295L1154.61 261.813L1165.12 249.253L1177.46 235.307L1189.21 222.458L1198.2 211.42L1199.23 207.645L1193.81 191.649L1188.03 176.096L1184.85 160.177L1184.96 143.025L1186.49 137.353L1191.01 129.759L1195.37 112.862L1199.33 94.4853L1201.1 81.5341L1201.14 66.6185L1203.02 50.2998L1205.78 41.3113L1220.13 17.3308"
        stroke="#D0D0D0" stroke-width="2" stroke-linecap="round" stroke-linejoin="round" />
      <path
        d="M1135.66 701.176L1112.09 684.705C1081.87 661.404 1039.17 633.563 1020.99 599.403L1014.27 588.978L1002.24 552.029L997.122 530.098L996.935 518.873L1000.54 494.323L1008.68 464.645L1015.53 447.152L1024.56 428.385L1034.58 409.982L1043.18 393.885L1048.85 381.623L1054.37 367.226L1056.58 357.65L1057.87 338.849L1061.99 322.615L1067.93 302.504L1070.88 266.941L1072.11 249.815L1074.02 229.355L1078.23 196.521L1080.59 192.669L1100.5 177.175L1115.78 166.01L1132.27 155.669L1147.38 146.519L1160.59 140.448L1172.98 135.584L1181.04 125.532L1186.88 114.843L1191.01 98.6009L1195.24 78.9998L1196.02 62.0944L1196.11 45.4951L1196.81 34.4232"
        stroke="#D0D0D0" stroke-width="2" stroke-linecap="round" stroke-linejoin="round" />
      <path
        d="M1084.8 84.7996L1074.55 99.7152L1068 111.28L1059.13 125.566L1048.23 143.271L1040.81 157.719L1039 165.177L1031.5 212.483L1027.75 245.112L1025.25 266.669L1022.66 291.041L1019 323.891L1016 343.756L1013.35 349.393L1005.98 362.158L991.892 384.914L975.709 409.736L953.037 439.924L931.777 475.64"
        stroke="#D0D0D0" stroke-width="2" stroke-linecap="round" stroke-linejoin="round" />
      <path
        d="M1065.25 96.2708L1059.98 106.416L1047.16 128.313L1031.72 154.726L1027.63 180.05C1018.88 231.166 1015.69 282.996 1008.36 334.308L1005.82 343.194L996.849 356.698L981.236 381.537L965.112 404.676L941.131 424.617L927.524 450.979L866.737 428.036"
        stroke="#D0D0D0" stroke-width="2" stroke-linecap="round" stroke-linejoin="round" />
      <path
        d="M1050.39 104.758L1036.39 128.304L1024.68 150.244L1022.52 158.136L1018.72 181.674L1013.53 213.58L1009.65 246.54L1007.37 268.004L1004.08 293.243L998.959 325.991L968.344 367.659L934.328 398.273C913.501 413.537 901.706 423.895 901.706 423.895L887.691 418.741"
        stroke="#D0D0D0" stroke-width="2" stroke-linecap="round" stroke-linejoin="round" />
      <path
        d="M1848.35 397.746L1839.5 370.083L1835.27 355.482L1832.94 330.617L1830.75 308.456L1830.36 302.835L1857.09 288.345L1861.75 282.885L1871.39 266.04L1881.24 252.68L1891.46 241.914L1902.26 237.773L1908.92 236.089L1929.38 234.967L1947.09 235.094L1974.88 228.938L1991.92 225.791L1999.66 225.817L2006.64 228.402"
        stroke="#D0D0D0" stroke-width="2" stroke-linecap="round" stroke-linejoin="round" />
      <path
        d="M1821.25 417.381L1820.77 407.942L1814.39 383.281L1811.09 367.702L1810.99 350.091L1808.15 316.918L1809.84 299.587L1811.07 289.085L1814.49 284.484L1821.21 281.117L1842.46 275.759L1854.29 270.861L1868.04 255.163L1881.1 239.78L1888.39 232.841L1904.49 227.645L1921.02 226.387L1941 226.038L1951.87 226.276L1972.42 221.795L1986.42 219.218L1994.24 220.035L1998.67 221.863"
        stroke="#D0D0D0" stroke-width="2" stroke-linecap="round" stroke-linejoin="round" />
      <path
        d="M1662.24 532.98L1652.94 512.146L1645.65 495.088L1628.57 465.146L1620.86 450.205L1619.67 448.819L1640.61 443.334L1659.87 437.228L1680.17 433.971L1701.03 433.759L1710.62 435.417L1733.54 444.465L1749.05 454.159L1757.69 457.365L1765.09 457.272L1784.97 432.679L1790.13 422.313L1791.99 413.18L1789.17 396.819L1786.79 380.253L1786.48 362.183L1787.25 342.25L1785.33 325.481L1786.03 310.812L1782.24 279.169L1782.14 275.351L1788.52 272.417L1819.82 265.478L1841.53 259.908L1853.98 256.396L1859.51 251.643L1873.28 235.375L1882.71 225.255L1887.83 222.619L1904.58 218.223L1933.65 217.271L1953.03 218.019L1977.87 213.223L1983.94 212.627L1990.69 215.323"
        stroke="#D0D0D0" stroke-width="2" stroke-linecap="round" stroke-linejoin="round" />
      <path
        d="M1644.67 545.753L1630.13 533.95L1626.34 529.902L1619.38 509.374L1612.73 486.499L1610.22 477.443L1600.95 472.876L1590 464.67L1582.83 457.485L1578.61 449.499L1572.63 433.487L1575.1 416.071L1576.57 401.879L1574.88 395.203L1572.61 392.661L1569.62 391.555L1555.93 395.373L1538.61 396.717L1522.04 396.062L1516.59 394.429L1510.7 389.412L1505.28 390.807L1500.16 389.293L1494.25 384.837L1489.4 379.072L1477.98 347.633L1469.64 328.296L1465.01 318.84L1463.15 310.591L1461.43 287.656L1462.39 278.94L1462.12 273.549L1455.96 259.551L1445.55 241.719L1439.74 227.288L1435.07 212.33L1434.47 203.223L1432.51 201.36L1430.36 202.075L1420.4 197.823L1407.3 190.331L1401.17 182.388L1396.04 171.231L1394.72 163.561L1394.88 151.902L1401.46 142.812L1410.63 133.356L1413.5 131.204L1436.99 133.092L1461.95 134.58L1485.84 131.323L1510.55 123.27L1514.47 123.398C1549.94 139.444 1590.59 153.255 1617.05 183.273L1623.64 187.414L1631.53 189.583L1650.07 192.091L1666.59 194.421L1671.35 196.369L1675.95 199.77L1687.5 213.495L1689.7 218.274L1692.41 238.547L1694.65 242.212L1707.53 252.842L1702.55 254.024L1687.94 251.643L1673.38 247.578L1658.26 246.524L1650.41 246.83L1632.91 253.769L1626.97 257.051L1621.82 274.042L1616.78 294.289L1613.58 302.929L1594.82 324.52L1575.42 345.312L1568.56 352.599L1578.59 378.612L1584.43 391.929L1587.02 395.152L1596.15 400.611L1605.17 402.814L1617.73 402.55L1651.61 398.834L1662.98 397.746L1669.66 399.089L1686.38 409.056L1709.94 412.296L1732.98 421.012L1747.68 427.772L1755.74 435.103L1764.15 417.993L1762.51 392.814L1762.41 368.586L1763.4 348.543L1761.99 319.673L1758.49 303.074L1759.23 284.255L1760.21 274.416L1762.3 272.35L1769.6 272.026L1784.07 265.096L1809.4 255.385L1835.8 250.418L1850.17 246.847L1862.69 234.474L1873.52 222.041L1879.32 216.063L1888.84 212.789L1905.23 208.835L1935.87 208.265L1950.53 209.532L1957.6 209.311L1973.06 206.343L1977.99 206.284L1983.86 208.827"
        stroke="#D0D0D0" stroke-width="2" stroke-linecap="round" stroke-linejoin="round" />
      <path
        d="M1627.32 558.416L1610.45 546.315L1602.37 539.546L1594.8 530.889L1585.28 516.781L1574.01 501.27L1567.39 473.693L1550.49 451.94L1543.5 442.739L1540.02 439.372L1523.82 430.545L1515.32 426.454L1507.51 421.488L1495.06 411.216L1487.69 399.991L1477.46 380.135L1471.02 364.335L1461.86 342.616L1455.36 325.473L1453.17 309.928L1453.43 291.883L1455.25 280.836L1455.14 273.991L1450.67 263.08L1440.56 246.481L1434.4 232.484L1429.92 218.546L1426.67 211.488L1413.07 202.296L1405.06 196.879L1394.62 180.16L1390.8 170.058L1390.33 153.45L1390.99 147.072L1410.36 127.412L1419.83 115.609L1422.02 113.772L1447.75 112.147L1472.79 111.391L1481.99 111.016L1511.65 119.724L1524.2 123.611L1539.35 130.158L1552.79 134.181L1564.41 135.465L1576.67 134.512L1602.79 141.536L1606.47 145.916L1615.19 163.697L1618.84 168.638L1624.96 173.553L1640.72 182.031L1654.83 186.309L1669.3 189.583L1674.93 192.236L1680.28 196.675L1692.49 210.638L1695.99 217.033L1701.62 233.479L1705.51 241.345L1709.64 245.52L1720.01 250.682L1736.09 256.252L1752.07 261.592L1761.25 262.341L1773.42 260.606L1808.23 245.707C1847.35 229.397 1838.16 248.531 1871.37 211.429L1876.12 206.76L1893.1 202.27L1907.21 199.362L1938.05 199.251L1955.36 201.505L1969.57 199.387L1987.04 206.794L2008.17 216.123L2015.17 218.138"
        stroke="#D0D0D0" stroke-width="2" stroke-linecap="round" stroke-linejoin="round" />
      <path
        d="M1581.24 592.014L1566.85 579.318L1548.43 559.657L1522.24 533.899L1502.9 514.647L1486.18 498.064L1472.38 484.271L1446.78 444.184L1432.41 420.723L1419.73 400.348L1408.67 381.708L1402.62 367.94L1400.66 334.903L1399.6 302.002L1399.13 282.358L1398.12 265.164L1395.64 244.78L1391.88 225.817L1386.23 213.52L1377.62 198.996L1369.58 180.9L1368.66 174.701L1368.77 147.336L1369.03 132.318L1369.66 130.099L1379.07 127.156L1385.54 121.425L1396.38 105.404L1407.1 89.7145L1418.42 75.9553L1426.32 67.9108L1447.8 55.827L1453.45 54.3304L1457.99 56.3882L1474.38 76.4401L1501.23 95.8202L1511.53 103.218L1522.68 105.268L1537.55 110.013L1544.36 111.016L1575.89 103.967L1594.83 100.769L1608.6 98.3032L1624.5 113.066L1635.7 127.224L1643.94 146.332L1647.28 150.593L1655.31 155.457L1672.31 160.049L1690.82 170.296L1704.94 184.217L1719.4 198.256L1727.64 203.571L1741.16 205.357C1766.6 206.471 1790.15 208.792 1813.34 196.726L1822.99 189.523L1837.6 185.288L1860.93 178.425L1868.77 178.681L1884.07 177.158L1901.36 176.376L1919.15 177.856L1937.07 178.442L1964.74 182.822L1983.13 189.812"
        stroke="#D0D0D0" stroke-width="2" stroke-linecap="round" stroke-linejoin="round" />
      <path
        d="M1493.56 313.142L1492.17 314.333L1490.52 310.132L1489.7 293.949L1486.75 277.928L1471.24 247.816L1462.14 231.03L1458.79 223.742L1456.98 213.818L1457.93 208.691L1461.51 205.663L1496.35 200.408L1523.86 192.448L1540.84 187.397L1544.11 187.278L1562.51 197.296L1579.51 205.476L1612.8 219.694L1622.05 224.814L1623.79 226.778L1622.17 228.071L1611.83 228.964L1602.82 226.769L1584.76 230.103L1577.21 234.678L1570.77 242.884L1566.42 252.604L1560.85 268.684L1551.69 281.176L1546.36 289.969L1543.8 292.801L1511.83 303.091L1497.8 306.781L1493.56 313.142Z"
        stroke="#D0D0D0" stroke-width="2" stroke-linecap="round" stroke-linejoin="round" />
      <path
        d="M1641.39 220.06L1642.75 223.019L1642.88 229.303L1641.46 231.616L1639.29 232.892L1612.64 234.941L1604.14 234.44L1593.21 235.877L1590.55 238.479L1584.49 258.922L1578.81 278.361L1570.2 291.423L1561.28 303.243L1551.11 312.334L1535.92 320.702L1518.3 331.569L1513.43 332.981L1502.7 331.85L1499.28 326.799L1488.24 321.39L1482.65 314.035L1480.49 297.929L1477.19 278.753L1469.54 258.539C1462.8 242.382 1443.14 220.681 1451.56 201.428L1455.47 194.94L1493.42 183.281L1512.35 177.056L1528.22 171.963L1537.84 169.471L1542.34 169.054L1552.58 174.548L1585.81 190.994L1595.72 196.921L1599.31 199.957L1629.65 215.527L1637.77 217.585L1641.39 220.06Z"
        stroke="#D0D0D0" stroke-width="2" stroke-linecap="round" stroke-linejoin="round" />
      <path
        d="M1656.52 227.178L1658.72 231.957L1659.11 233.989L1640.08 239.423L1623.22 240.554L1613.89 241.26L1609.76 244.262L1606.05 254.789L1600.67 275.47L1595.68 291.007L1577.3 314.63L1561.51 330.711L1544.52 342.939L1529.03 353.654L1517.87 358.782L1509.43 373.425L1505.42 379.131L1502.43 381.614L1498.98 380.713L1494.1 375.508L1492.32 368.051L1493.1 354.725L1496.12 337.888L1495.86 335.524L1489.58 332.071L1479.96 324.35L1474.05 316.305L1472.62 311.994L1469.11 282.163L1469.77 275.793L1463.75 260.903L1454.97 244.806L1448.19 232.475L1442.52 213.563L1441.96 206.93L1443.82 201.386L1444.7 194.906L1443.13 191.487L1440.41 189.157L1436.97 187.703L1424.61 192.006L1410.12 185.696L1404.95 179.25L1399.92 168.323L1398.97 159.658L1399.26 154.284L1403.27 148.025L1405.77 146.877L1431.63 158.714L1440.65 160.917L1454.87 161.274L1467.3 165.491L1488.46 162.932C1557.59 148.467 1518.6 140.78 1580.81 171.784L1598.3 182.227L1608.74 192.321L1629.05 202.296L1646.63 206.352L1650.67 209.736L1653.52 215.323L1656.5 227.195L1656.52 227.178Z"
        stroke="#D0D0D0" stroke-width="2" stroke-linecap="round" stroke-linejoin="round" />
      <path
        d="M1651.47 361.367L1669.7 359.606L1687.21 359.283L1701.66 363.119L1710.08 362.838L1720.97 358.926L1724.78 355.797L1730.69 342.871L1731.38 338.968L1726.99 329.401L1716.42 313.023L1710.18 301.262L1698.94 291.815L1680.75 282.248L1672.18 280.394L1665.45 280.182L1654.08 284.859L1641.98 291.525L1638.84 294.901L1633.84 310.438L1618.43 329.112L1616.28 336.442L1619.12 345.618L1623.86 355.312L1627.34 358.671L1631.54 360.61L1651.47 361.367Z"
        stroke="#D0D0D0" stroke-width="2" stroke-linecap="round" stroke-linejoin="round" />
      <path
        d="M1137.3 84.3827L1123.4 135.745L1113.13 182.397L1115.78 200.765L1121.39 217.772L1132.76 223.3L1142.31 239.874L1149.83 253.803L1153.16 271.856L1154.49 286.143L1145.66 340.141L1146.79 436.183L1159.06 458.675L1165.6 481.882L1175.35 506.083L1194.5 537.556L1223.65 561.944L1250.26 571.783L1277.33 583.884L1305.46 595.237L1338.49 617.287L1367.54 631.241L1404.41 649.048L1437.65 664.933L1466.8 679.117L1508.02 697.962L1547.42 717.648L1573.12 717.146L1601.32 729.273L1656.95 777.633L1681.37 798.961L1712.95 790.227L1724.16 787.004L1757.24 780.355L1770.03 766.187L1771.16 742.224L1775.16 719.136L1773.42 690.147L1687.24 632.934L1653.99 627.814L1606.27 594.854L1574.47 562.302L1511.5 502.146L1487.61 471.201L1459.43 454.916L1439.17 439.669L1421.58 408.588L1399.48 353.926L1397.54 320.328L1399.36 309.281L1399.14 302.206L1394.78 291.525L1384.67 274.934L1378.51 260.937L1374.02 247L1370.78 239.933L1349.17 225.324L1338.72 208.605L1333.15 193.511L1334.43 181.887L1335.09 175.517L1354.46 155.848L1363.93 144.045L1391.86 140.584L1416.89 139.827L1426.33 139.351L1468.21 151.826L1496.9 162.634L1508.75 163.808L1520.78 162.966L1546.91 169.981L1559.3 192.151L1584.74 210.247L1619.05 220.681L1636.62 239.083L1645.75 261.924L1653.77 273.965L1680.22 284.697L1705.37 290.794L1758.83 312.836L1774.48 331.289L1799.2 357.446L1829.92 447.05L1856.5 477.859L1872.57 494.204L1891.96 511.772L1899.2 516.713L1900.82 525.633L1871.78 573.467L1870.29 598.425L1872.97 619.268L1878.96 649.065L1854.5 707.486L1846.38 798.408L1807.6 907.264L1801.08 921.304L1756.14 927.342L1740.73 904.637L1715.18 869.482L1701.19 865.435L1684.1 849.286L1639.59 807.686L1606.76 786.086L1565.47 765.898L1529.89 746.119L1481.18 722.997L1450.27 707.962L1419.09 697.749L1381.86 680.385L1342.87 665.205L1306.78 647.314L1272.32 637.781L1234.85 624.668L1203.58 620.28L1156.44 593.961L1115.41 572.54L1085.36 568.985L1071.04 578.05L1054.85 583.017L1038.99 532.921L1057.07 473.846L1064.81 435.519L1074.55 388.289L1059.63 367.838L1058.88 339.214L1048.67 325.421L1044.91 303.43L1036.98 274.79L1030.23 248.105L1023.96 223.674L1022.85 196.045L1024.96 172.456L1028.26 150.244"
        stroke="#D0D0D0" stroke-width="2" stroke-linecap="round" stroke-linejoin="round" />
      <path
        d="M1253.27 458.947L1253.18 458.156L1260.66 438.445L1267.4 417.687L1277.24 391.096L1281.5 373.961L1284.07 353.747L1285.29 333.593L1286.05 317.249L1286.37 307.164L1286.83 279.365L1289.08 262.052L1289.16 228.632L1288.72 207.874L1288.1 189.123L1286.37 169.777L1283.19 153.858L1277.95 122.063L1275.52 107.173L1276.31 89.7062L1277.45 78.9744L1283.17 62.0094L1291.32 42.536L1298.87 27.7478L1304.69 21.2085"
        stroke="#D0D0D0" stroke-width="2" stroke-linecap="round" stroke-linejoin="round" />
      <path
        d="M1248.65 456.107L1248.05 453.615L1257.56 420.281L1265.11 398.324L1271.58 375.764L1273.48 361.919L1274.67 335.719L1276.66 305.837L1276.14 287.316L1277.27 269.969L1279.75 252.553L1279.83 205.34L1278.66 179.395L1277.09 168.8L1271.67 135.984L1270.52 116.102L1267.26 99.3919L1266.09 90.2674L1269.31 77.4777L1277.55 55.2064L1284.82 38.6156L1294.31 19.6352L1301.87 11.4717L1311.59 5.62106"
        stroke="#D0D0D0" stroke-width="2" stroke-linecap="round" stroke-linejoin="round" />
      <path
        d="M1243.93 453.037L1242.88 447.17L1251.78 411.905L1257.72 391.24L1261.74 377.804L1263.53 354.079L1264.38 334.929L1266.03 318.72L1266.35 305.608L1265.1 289.085L1267.18 263.021L1270.51 243.275L1271.43 229.065L1271.17 202.704L1270.06 181.7L1267.44 165.789L1264.4 148.986L1262.77 140.627L1264.18 121.502L1264.19 114.325L1260.19 96.0244L1255.76 80.403L1258.62 78.8129L1273.86 44.7638L1283.44 22.9857L1289.85 11.7522"
        stroke="#D0D0D0" stroke-width="2" stroke-linecap="round" stroke-linejoin="round" />
      <path
        d="M1237.57 441.617L1237.18 439.584L1242.17 417.423L1248.86 391.173L1251.56 380.832L1253.84 345.575L1255.82 325.906L1255.25 309.06L1254.18 293.55L1256.87 262.8L1260.07 240.359L1262.56 225.97L1262.28 200.17L1261.46 183.996L1259.98 174.744L1254.04 146.851L1253.42 138.305L1257.36 113.874L1253.43 93.3374L1250.96 83.1582L1251.62 76.789L1266.65 42.2894L1277.91 16.9738L1285.52 3.53779"
        stroke="#D0D0D0" stroke-width="2" stroke-linecap="round" stroke-linejoin="round" />
      <path
        d="M1244.82 202.398L1244.59 188.715L1242.69 178.553L1236.46 159.624L1234.43 149.802L1235.98 126.187L1240.97 93.822L1242.43 69.4248L1245.42 50.1213L1249.23 33.1988L1251.37 15.6556L1253.15 12.3478L1254.77 0.85069"
        stroke="#D0D0D0" stroke-width="2" stroke-linecap="round" stroke-linejoin="round" />
      <path
        d="M1227.02 249.483L1229.13 229.482L1233.28 205.502L1235.88 194.37L1235.62 188.979L1229.47 170.832L1224.93 155.542L1225.88 126.417L1228.03 111.909L1233.54 84.2721L1235.54 64.0417L1241.17 32.4844L1242.78 24.5674L1247.3 16.4207"
        stroke="#D0D0D0" stroke-width="2" stroke-linecap="round" stroke-linejoin="round" />
      <path
        d="M1221.65 262.996L1222.25 258.302L1222.03 251.226L1215.69 221.863L1215.13 215.23L1217.33 206.216L1218.97 173.187L1214.91 160.151L1214.31 151.052L1214.96 134.47L1216.96 117.828L1221.26 99.5705L1227.13 70.947L1229.67 51.8476L1233.14 34.7975L1236.73 27.6289"
        stroke="#D0D0D0" stroke-width="2" stroke-linecap="round" stroke-linejoin="round" />
      <path d="M1207.48 116.391L1211.3 102.495L1214.63 86.3468L1222.01 52.604L1224.51 41.2431L1228.88 34.5506"
        stroke="#D0D0D0" stroke-width="2" stroke-linecap="round" stroke-linejoin="round" />
      <path d="M1205.41 76.5166L1205.33 75.7256L1207.98 56.2947L1209.93 51.541L1213.7 45.9455" stroke="#D0D0D0"
        stroke-width="2" stroke-linecap="round" stroke-linejoin="round" />
      <path d="M1431.87 72.8091L1442.66 68.6679L1455.19 62.9108L1458.87 66.7375" stroke="#D0D0D0" stroke-width="2"
        stroke-linecap="round" stroke-linejoin="round" />
      <path d="M1431.07 80.0713L1434.85 77.5031L1449.59 72.9367L1456.24 71.8057L1458.76 73.685" stroke="#D0D0D0"
        stroke-width="2" stroke-linecap="round" stroke-linejoin="round" />
      <path d="M1430.02 87.9966L1434.28 84.663L1442.36 81.2191L1448.93 79.3058L1458.52 80.964L1466.18 86.823"
        stroke="#D0D0D0" stroke-width="2" stroke-linecap="round" stroke-linejoin="round" />
      <path
        d="M1417 109.443L1419.21 106.484L1424.27 99.477L1431.28 94.3152L1439.53 92.4614L1464.86 92.946L1487.93 107.717"
        stroke="#D0D0D0" stroke-width="2" stroke-linecap="round" stroke-linejoin="round" />
      <path
        d="M1552.87 612.508L1535.46 596.24L1510.37 571.086L1494.18 555.082L1479.95 540.932L1458.1 519.808L1421.98 499.451L1409.5 489.731L1399.35 477.851L1385.83 455.648L1381.53 449.899L1375.51 445.222L1371.43 439.924L1364.98 424.686L1361.93 411.462L1362.1 399.242L1368.49 378.927L1370.17 361.605L1369.74 323.457L1369.1 298.09L1368.37 276.083L1367.37 261.916L1363.56 230.843L1361.28 211.48L1360.18 197.083L1356.4 185.858L1354.76 163.706L1348.3 131.647L1345.63 113.84L1344.76 105.965L1345.78 98.5926L1361.95 84.5444L1374.65 73.7361L1391.31 57.8001L1410.46 41.2687L1427.56 26.2341L1436.5 16.88"
        stroke="#D0D0D0" stroke-width="2" stroke-linecap="round" stroke-linejoin="round" />
      <path
        d="M1542.98 619.812L1535.91 613.409L1503.34 580.389L1489.98 566.936L1477.81 554.878L1464.87 542.343L1451.26 530.124L1437.49 522.385L1407.44 508.065L1386.14 497.716L1368.37 489.067L1364.68 485.241L1358.95 475.189L1352.93 460.291L1347.47 441.838L1345.26 423.818L1346.16 413.197L1356.71 379.105L1358.64 367.728L1359.62 338.041L1359.52 316.841L1359.01 294.731L1358.38 275.981L1357.55 263.956L1353.55 231.863L1352.37 209.498L1352.53 194.251L1349.91 175.33L1345.39 155.329L1340.83 137.012L1338.18 118.644L1336.95 108.176L1338.93 92.087L1340.87 87.8948L1367.23 63.625L1389.73 44.1771L1403.94 31.8552L1416.4 21.1574"
        stroke="#D0D0D0" stroke-width="2" stroke-linecap="round" stroke-linejoin="round" />
      <path
        d="M1523.57 633.988L1506.43 615.926L1489.5 598.885L1473.31 582.881L1449.36 560.796L1436.81 550.294L1418.74 540.396L1395.68 528.652L1379.36 516.569L1358.61 506.245L1344.17 495.233L1328.03 484.722L1311.61 479.025L1303.39 476.737L1308.68 472.647L1310.28 468.327C1308.75 428.096 1332.79 399.472 1336.81 359.845L1338.68 340.499L1338.95 321.892L1338.87 303.72L1337.8 267.792L1335.44 250.673L1334.45 229.329L1334.53 209.702L1333.49 186.453L1332.22 170.483L1327.43 152.268L1321.78 119.002L1322.45 105.455L1325.08 90.1737L1325.69 78.311L1326.96 70.275L1329.33 66.4228L1347.84 49.0838L1371.57 29.8993L1385.49 19.3632"
        stroke="#D0D0D0" stroke-width="2" stroke-linecap="round" stroke-linejoin="round" />
      <path
        d="M1514.04 640.851L1493.76 619.557L1476.81 602.507L1460.17 586.716L1445.91 573.688L1432.27 562.029L1416.53 552.99L1396.92 542.148L1383.05 530.591L1375.07 524.052L1368.43 521.586L1362.7 518.15L1340.14 501.483L1325.77 491.822L1303.47 484.144L1292.44 475.147L1290.14 470.138L1293.06 456.098L1304.55 427.092L1313.58 404.727L1321.34 380.194L1325.94 356.009L1328.02 333.534L1328.55 313.703L1328.65 297.104L1328.25 275.224L1325.57 247.212L1325.49 225.451L1324.46 202.202L1323.43 181.98L1322.5 166.138L1318.18 150.737L1314.71 129.988L1313.93 115.719L1316.88 94.5105L1317.62 64.926L1317.78 59.8833L1355.26 31.6084L1377.66 15.5193"
        stroke="#D0D0D0" stroke-width="2" stroke-linecap="round" stroke-linejoin="round" />
      <path
        d="M1495.42 654.38L1491.53 636.31L1488.01 630.476L1475.43 617.5L1458.68 601.47L1442.23 586.691L1427.4 573.646L1398.38 555.541L1383.34 542.037L1373.99 533.091L1364.03 528.848L1349.12 518.601L1336.25 507.41L1323.29 499.026L1305 492.256L1291.39 483.064L1280.67 474.747L1276.66 470.24L1275.68 465.725L1293.77 427.058L1302.83 404.141C1318.99 361.996 1318.23 319.358 1318.25 275.113L1316.61 249.934L1315.77 227.697L1315.01 202.661L1313.86 176.155L1311.69 160.049L1308.15 141.537L1305.57 120.932L1306.29 109.29L1307.3 78.4727L1308.02 63.2511L1312.33 51.618L1351.33 24.8567"
        stroke="#D0D0D0" stroke-width="2" stroke-linecap="round" stroke-linejoin="round" />
      <path
        d="M1474.75 669.398L1472.81 666.983L1468.61 641.055L1460.3 620.595L1438.55 599.701L1422.53 585.27L1399.61 569.045L1383.53 553.271L1372.78 542.48L1358.44 535.285L1332.23 513.677L1319.16 505.063L1303.86 499.408L1283.06 484.152L1264.2 470.751L1261.23 469.084L1268.79 460.92L1275.34 445.767L1286.52 419.66L1294.37 398.945L1301.13 374.037L1305.07 346.018L1307.08 319.171C1309.7 280.011 1306.25 242.017 1306.18 202.619L1305.22 183.741L1304.39 171.155C1298.24 139.785 1291.78 94.5363 1299.17 63.2085L1305.86 47.162L1310.8 40.478L1351.1 15.324"
        stroke="#D0D0D0" stroke-width="2" stroke-linecap="round" stroke-linejoin="round" />
      <path
        d="M1193.2 34.9505L1193.18 55.9209L1189.95 62.0946L1164.35 94.009L1152.82 100.14L1143.06 107.113L1126.43 118.347L1108.74 127.862L1088.55 137.974L1080.84 144.003L1075.91 150.678L1068.33 166.58L1062.71 183.783L1060.09 199.064L1055.41 235.698L1052.76 261.745L1050.56 284.552L1049.08 305.922L1047.21 318.644L1042.06 335.635L1039.63 354.955L1037.61 361.954L1027.99 381.827L1017.39 400.773L1005.26 421.794L988.916 451.651L985.327 461.856L976.474 477.094C976.474 477.094 972.171 494.246 971.754 495.488C971.338 496.729 976.032 514.018 976.032 514.018"
        stroke="#D0D0D0" stroke-width="2" stroke-linecap="round" stroke-linejoin="round" />
      <path
        d="M1083.78 686.133L1056.58 667.187L1039.23 652.824L1022.44 637.926L1014.39 630.034L996.883 606.36L991.926 596.776C991.926 596.776 969.049 540.379 968.641 539.146C968.233 537.913 960.409 504.561 960.409 503.32C960.409 502.078 962.399 482.452 962.399 482.452L975.258 451.328L985.173 436.293L1001.31 409.005L1012.25 390.186L1021.78 373.111L1027.52 362.192L1031.41 353.237L1032.93 340.958L1037.4 324.273L1040.97 287.044L1044.63 254.194L1047.38 228.377L1051.85 194.319L1055.01 176.589L1059.37 163.272L1067.08 147.03L1076.13 130.728L1084.17 121.799L1106.38 107.717L1127.4 92.8101L1140.61 83.1497L1144.73 80.7007L1172.57 48.8628L1186.19 33.4964"
        stroke="#D0D0D0" stroke-width="2" stroke-linecap="round" stroke-linejoin="round" />
      <path
        d="M1167.98 731.832L1152.85 721.134L1133.29 708.608L1117.23 698.889L1102 687.961L1075.47 669.262L1062.23 659.074L1046.95 646.233L1032.23 633.418L1023.42 625.051L1014.24 610.509L1002.29 591.724L996.493 573.705L989.621 550.379L984.213 530.795L983.116 523.023L989.332 497.545L992.734 479.152L998.806 458.156L1015.02 425.034L1026.1 405.322L1035.42 387.796L1045.17 367.591L1047.58 359.028L1049.76 336.782L1055.67 317.24L1058.65 305.114L1059.93 286.312L1061.84 262.264L1063.97 241.693L1065.51 225.255L1067.17 209.047L1070.45 190.985L1076.45 172.226L1078.96 167.49L1093.64 157.43L1110.13 147.089L1127.27 137.548L1145.82 129.299L1162.2 118.729L1179.28 107.292L1189.49 89.9015L1192.82 67.1284"
        stroke="#D0D0D0" stroke-width="2" stroke-linecap="round" stroke-linejoin="round" />
      <path
        d="M1138.92 55.4955L1123.94 70.9297L1109.9 81.7976L1091.38 96.1094L1082.58 104.571L1077.49 112.7L1067.44 128.636L1055.81 148.331L1048.54 164.913L1046.61 172.703L1043.82 189.438L1040.36 213.104L1036.84 242.034L1035.11 260.478L1032.53 281.253L1029.54 310.769L1027.18 331.442L1021.17 354.351L1011.27 372.422L995.6 398.945L982.104 420.595L970.624 435.808L940.298 498.6C939.83 501.67 973.6 598.842 973.6 598.842L988.414 615.493L1009.16 639.609L1020.18 649.167L1039.69 666.404L1054.68 677.995L1068.85 687.205"
        stroke="#D0D0D0" stroke-width="2" stroke-linecap="round" stroke-linejoin="round" />
      <path
        d="M1618.47 564.972L1597.55 549.478L1590.39 542.301L1576.32 523.108L1559.48 502.707L1545.83 488.013L1525.14 472.425L1519.97 465.971L1507.74 445.384L1500.58 434.609L1490.33 425.527L1476.01 403.979L1467.66 388.23L1460.1 372.387L1450.25 347.956L1444.77 333.644L1443.2 323.61L1443.65 302.988L1444.11 288.983L1447.73 284.28L1448.3 277.12L1446.86 269.781L1435.69 251.473L1429.78 239.839L1424.34 224.414L1419.1 216.616L1406.3 206.777L1401.21 201.114L1395.69 191.513"
        stroke="#D0D0D0" stroke-width="2" stroke-linecap="round" stroke-linejoin="round" />
      <path
        d="M1609.39 571.622L1592.53 558.968L1585.22 552.667L1572.22 535.191L1558.62 518.822L1547.58 506.797L1533.06 494.442L1520.23 482.128L1511.37 474.891L1504.83 466.039L1495.38 449.695L1491.06 444.508L1483.86 438.436L1473.71 422.968L1461.9 403.29L1452.91 386.733L1438.51 353.628L1433.96 341.927L1433.02 336.289L1432.78 295.573L1433.09 275.836L1432.8 264.398L1427.38 251.43L1420.09 234.371L1414.59 224.21L1404.36 214.566L1391.68 194.191"
        stroke="#D0D0D0" stroke-width="2" stroke-linecap="round" stroke-linejoin="round" />
      <path
        d="M1600.08 578.391L1586.97 567.863L1579.3 562.004L1557.76 534.945L1529.05 507.316L1507.96 486.669L1497.61 477.358L1487.17 460.648L1480.55 454.032L1456.32 416.343L1448.03 402.499L1438.05 385.016L1429.5 365.219L1423.27 349.878L1422.22 316.986L1420.49 283.838L1418.96 255.308L1416.55 246.481L1409.44 230.996L1402.32 222.126L1393.71 207.602L1388.4 198.452"
        stroke="#D0D0D0" stroke-width="2" stroke-linecap="round" stroke-linejoin="round" />
      <path
        d="M1590.55 585.253L1574.5 571.945L1556.9 551.068L1524.94 519.97L1509.29 504.544L1495.94 491.1L1484.83 480.751L1479.7 473.183L1475.04 467.868L1456.6 438.555L1444.67 419.218L1434.04 401.479L1423.19 383.298L1412.68 358.059L1411.35 323.355L1410.04 294.714L1408.99 268.438L1406.82 249.296L1404.36 238.564L1387.69 206.505L1384.72 201.25"
        stroke="#D0D0D0" stroke-width="2" stroke-linecap="round" stroke-linejoin="round" />
      <path
        d="M1571.94 598.783L1544.85 572.889L1517.27 545.294L1498.47 526.62L1482.61 510.735L1473.49 501.687L1452.61 485.079L1445.1 474.739C1429.16 448.054 1417.47 419.073 1401.24 392.558L1392.22 376.563L1390.85 360.372L1390.04 323.219L1389.34 296.5L1388.32 272.69L1385.78 247.374L1382.23 218.657L1368.98 191.64L1364.53 180.169L1364.14 161.316L1364.25 140.575L1363.61 125.975L1384.08 103.312L1396.01 88.4476L1403.36 79.8247L1417.49 66.1506L1443.72 42.2211L1448.98 39.2533L1452.78 39.7126L1459.21 48.8967"
        stroke="#D0D0D0" stroke-width="2" stroke-linecap="round" stroke-linejoin="round" />
      <path
        d="M1562.63 605.543L1542.38 586.716L1517.39 561.791L1498.6 543.126L1482.31 526.892L1463.39 508.558L1446.56 498.362C1415.48 479.211 1399.9 425.723 1379.27 395.229L1377.72 387.66L1380.16 378.544L1379.94 330.09L1379.2 301.466L1378.45 276.431L1377.3 260.129L1372.83 225.213L1370.58 208.316L1360.21 182.184L1359.63 152.106L1354.56 118.295L1354.81 110.455L1370.14 94.5786L1394.33 71.5929L1406.25 60.317L1424.15 44.6446L1437.47 31.6168L1446.87 22.0501L1448.63 22.892L1455.08 35.1032"
        stroke="#D0D0D0" stroke-width="2" stroke-linecap="round" stroke-linejoin="round" />
      <path
        d="M1525.67 274.382L1517.3 272.987L1506.67 265.461L1504.17 263.021L1504.33 261.567L1508.13 258.446L1521.13 255.504L1530.42 255.92L1533.39 257.587L1535 259.883L1534.67 266.371L1529.55 272.596L1525.67 274.382Z"
        stroke="#D0D0D0" stroke-width="2" stroke-linecap="round" stroke-linejoin="round" />
      <path
        d="M1525.15 279.858L1518.68 278.974L1508.11 272.8L1495.61 264.203L1492.71 260.291L1491.38 256.209L1493.72 249.9L1496.94 247.306L1510.68 242.374L1526.83 238.53L1538.78 236.897L1541.68 237.221L1542.99 238.275L1539.93 263.404L1534.26 275.666L1532.17 277.732L1525.15 279.858Z"
        stroke="#D0D0D0" stroke-width="2" stroke-linecap="round" stroke-linejoin="round" />
      <path
        d="M1524.53 285.113L1517.62 283.872L1507.26 278.149L1493.55 268.735L1489.13 263.318L1479.81 236.429L1481.23 234.125L1486.57 231.94L1523.86 226.659L1540.19 224.388L1546.26 224.354L1548.53 230.485L1549.91 239.508L1544.23 265.563L1537.24 280.921L1533.8 283.055L1524.53 285.113Z"
        stroke="#D0D0D0" stroke-width="2" stroke-linecap="round" stroke-linejoin="round" />
      <path
        d="M1524.02 290.59L1517.65 289.927L1496.97 277.366L1487.25 269.424L1481.23 254.534L1472.71 237.212L1465.83 224.652L1464.52 220.009L1464.63 216.65L1475.12 214.855L1501.76 213.376L1527.54 210.068L1544.18 205.45L1552.14 208.962L1562.69 215.697L1565.9 220.289L1565.43 224.643L1557.73 233.708L1549.93 262.944L1540.2 286.176L1524.02 290.59Z"
        stroke="#D0D0D0" stroke-width="2" stroke-linecap="round" stroke-linejoin="round" />
      <path
        d="M1423.31 177.167L1426.04 178.936L1422.72 181.291L1417.74 182.482L1412.3 180.841L1408.32 175.781L1405.69 170.645L1405.65 168.17L1415.73 172.09L1423.31 177.167Z"
        stroke="#D0D0D0" stroke-width="2" stroke-linecap="round" stroke-linejoin="round" />
      <path
        d="M1906.6 355.235L1903.92 337.981L1902.79 331.331L1910.17 318.006L1923.61 298.031L1940.86 274.926L1949.22 266.116L1956.02 260.504L1976.92 252.553L1998.6 248.105L2016.02 243.403L2024.38 244.797"
        stroke="#D0D0D0" stroke-width="2" stroke-linecap="round" stroke-linejoin="round" />
      <path
        d="M1885.12 370.908L1874 350.915L1869.83 334.069L1869.11 328.882L1870.42 316.144L1872.15 314.519L1884.58 315.149L1894.72 303.592L1907.44 285.054L1919.41 265.478L1925.14 258.156L1930.77 254.185L1935.86 252.672L1939.91 252.468L1970.54 245.282L1989.61 241.753L2010.61 237.62L2013.83 238.623"
        stroke="#D0D0D0" stroke-width="2" stroke-linecap="round" stroke-linejoin="round" />
      <path
        d="M1872.94 379.82L1863.43 354.946L1859.25 345.839L1856.41 336.663L1855.08 328.993L1855.2 318.457L1856.72 309.758L1858.72 306.9L1874.72 294.306L1881.02 286.993L1893.15 255.767L1895.57 250.231L1908.39 245.716L1927.17 243.973L1943 243.598L1977.68 236.209L1997.43 232.365L2005.08 231.6L2018.05 236.404"
        stroke="#D0D0D0" stroke-width="2" stroke-linecap="round" stroke-linejoin="round" />
      <path
        d="M1097.54 498.277L1101.46 488.2L1106.17 470.852L1110.18 451.362L1112.96 445.392L1140.92 423.427L1166.93 403.188L1172.15 397.754L1182.49 369.828L1188.89 359.164L1190.22 332.063L1201.54 311.688L1205.48 290.837L1207.24 281.474"
        stroke="#D0D0D0" stroke-width="2" stroke-linecap="round" stroke-linejoin="round" />
      <path
        d="M1090.08 572.056L1080.33 568.254L1074.16 554.819L1074.77 539.367L1077.87 520.285L1087.1 498.379L1095.03 475.428L1099.83 458.871L1103.47 443.964L1109.81 424.762L1113.7 415.247L1120.7 407.066L1131.1 397.873L1137.67 385.747L1150.71 370.925L1159.73 359.326L1163.45 351.826L1165.16 336.961L1167.27 330.753L1178.14 314.171L1187.49 302.7L1196.66 286.066L1206.05 269.884L1210.38 257.689L1211.44 249.202L1211.39 247.289"
        stroke="#D0D0D0" stroke-width="2" stroke-linecap="round" stroke-linejoin="round" />
      <path
        d="M1141.01 609.608L1126.95 600.628L1110.4 592.235L1095.47 585.576L1074.74 578.28L1057.28 570.312L1056.38 563.552L1058.64 545.685L1061.53 529.18L1069.89 513.754C1084.05 481.873 1093.03 446.149 1104.04 412.806L1112.97 383.043L1130.44 359.836L1137.06 349.623L1140.35 338.177L1145.6 328.593L1155.47 314.672L1167.6 300.267L1175.44 290.318L1185.41 273.6L1206.08 248.369L1209.05 243.42L1209.23 231.2L1208.47 227.135"
        stroke="#D0D0D0" stroke-width="2" stroke-linecap="round" stroke-linejoin="round" />
      <path
        d="M1145.77 628.937L1127.63 614.107L1108.56 603.834L1094.43 597.091L1070.92 588.587L1059.96 580.933L1047.11 569.19L1043.23 564.351L1042.19 558.484L1044.71 542.981L1055.78 523.269L1065.99 499.263L1075.1 471.074L1080.64 452.527L1092.73 418.827L1100.12 395.288L1104.08 380.509L1105.58 362.158L1107.17 354.81L1115.52 339.385L1125.53 324.571L1137.56 309.936L1148.77 296.5L1160.08 283.302L1168.84 269.348L1180.05 255.359L1191.37 242.153L1202.66 229.516L1205.94 225.247L1206.07 221.327L1202.51 209.992L1202.43 209.201"
        stroke="#D0D0D0" stroke-width="2" stroke-linecap="round" stroke-linejoin="round" />
      <path
        d="M1187.69 691.32L1160.22 670.571L1146.8 658.802L1131.75 645.868L1119.74 635.935L1104.1 627.125L1084.02 617.049L1075.97 612.754L1070.3 611.223L1049.14 589.224L1036.91 575.814L1028.12 563.296L1024.57 554.997L1024.48 551.179L1034.56 531.093L1040.34 515.471L1048.33 487.247L1053.28 469.236L1058.55 452.476L1069.1 428.036L1078.22 406.462L1084.82 386.044L1088.72 369.904L1089.75 348.747L1091.48 333.321L1095.22 318.644L1099.71 304.995L1104.56 296.968L1118.66 280.828L1129.36 269.288L1147.72 246.226L1160.98 231.854L1176.81 214.09L1186.91 200.059L1188.65 194.846L1185.66 183.536"
        stroke="#D0D0D0" stroke-width="2" stroke-linecap="round" stroke-linejoin="round" />
      <path
        d="M1177.86 696.941L1152.03 677.366L1139.7 666.762L1124.63 654.38L1113.49 645.154L1093.99 634.532L1067.93 618.656L1058.97 611.19L1042.89 591.818L1030.15 576.715L1024.8 568.688L1021.35 557.582L1020.27 546.221L1025.03 530.787L1033.2 500.547L1039.55 477.766L1046.68 455.452L1053.75 437.849L1066.28 411.683L1074.49 389.965L1080.07 370.304L1082.47 338.304L1085.25 325.158L1091.25 306.398L1097.45 284.51L1101.02 274.867L1114.69 261.405L1127.04 247.459L1145.91 226.089L1164.07 205.595L1177.28 189.319L1180.02 184.472L1179.13 174.123"
        stroke="#D0D0D0" stroke-width="2" stroke-linecap="round" stroke-linejoin="round" />
      <path
        d="M1189.31 717.053L1174.4 706.806L1148.55 687.791L1135.54 677.502L1117.74 662.79L1107.25 654.372L1089.54 644.031L1080.45 636.897L1056.17 618.273L1038.71 596.504L1025.97 581.393L1021.38 574.402L1016.89 553.84L1013.53 539.937L1014.19 529.979L1021.67 500.054C1030.82 464.16 1041.52 438.062 1058.52 405.595L1067.19 384.233L1071.21 370.797L1072.87 361.205L1073.93 342.514L1075.54 331.017L1081.94 310.14L1087.77 289.808L1090.31 270.156L1091.1 252.689L1092.88 246.354L1105 235.537L1124.27 215.638L1140.54 198.222L1148.89 189.974L1171.68 172.32L1173.78 169.701L1174.83 154.59"
        stroke="#D0D0D0" stroke-width="2" stroke-linecap="round" stroke-linejoin="round" />
      <path
        d="M1110.62 671.303L1098.36 662.042L1075.82 644.822L1061.83 633.597L1047.46 620.34L1039.87 608.656L1022 585.976L1018.24 580.806L1011.48 557.71L1006.2 537.233L1005.27 528.006L1006.15 518.507L1012.68 490.122L1018.47 470.903L1025.51 450.835L1034.43 431.837L1043.3 414.515L1050.85 399.736L1056.4 387.805L1061.97 371.724L1064.69 360.822L1065.74 342.131L1067.19 332.08L1072.6 313.865L1077.67 296.084L1080.03 279.008L1081.16 254.483L1082.39 237.357L1083.57 225.511L1086.12 219.652L1098.44 206.258L1116.23 190.356L1145.6 170.228L1161.2 159.743L1169.02 153.943L1171.01 151.095L1172.09 145.635L1175.46 138.569"
        stroke="#D0D0D0" stroke-width="2" stroke-linecap="round" stroke-linejoin="round" />
    </g>
    <g opacity="0.6">
      <path d="M507.116 17.3646L518.579 20.0942" stroke="#D0D0D0" stroke-width="2" stroke-linecap="round"
        stroke-linejoin="round" />
      <path
        d="M481.518 111.076L491.69 108.601L510.305 105.285L519.617 105.14L524.6 106.986L534.074 115.591L541.532 127.607L550.121 149.87L554.331 154.828L563.898 160.636C606.759 172.626 597.115 174.862 627.56 203.086L635.894 212.219L639.652 213.801C668.09 217.458 692.693 220.664 719.14 207.874L732.262 201.011L737.577 196.36"
        stroke="#D0D0D0" stroke-width="2" stroke-linecap="round" stroke-linejoin="round" />
      <path
        d="M479.384 117.845L490.924 114.741L508.23 110.37L513.97 109.664L524.506 113.372L530.91 116.501L541.719 146.018C550.656 170.449 568.592 165.372 588.109 174.896L596.698 179.777L609.513 192.643L622.099 205.62L630.68 217.679L636.403 221.114L661.295 224.847L692.471 228.444L719.905 216.105L735.553 207.534L750.588 197.032L753.097 195.883"
        stroke="#D0D0D0" stroke-width="2" stroke-linecap="round" stroke-linejoin="round" />
      <path
        d="M484.384 122.717L505.645 117.36L512.839 116.807L522.296 119.358L527.364 121.995L536.03 148.628L539.908 157.056L545.078 163.51L551.32 168.085L564.034 173.553L586.595 180.007L592.106 182.992L600.499 190.441L613.485 204.881L619.43 211.803L623.324 219.669L631.743 229.593L641.438 231.48L645.393 234.074L654.39 236.838L673.677 240.384L684.894 240.188L690.991 239.04L708.297 231.081L724.608 222.756L738.079 215.459L746.991 207.228L758.012 199.396L776.653 191.929L801.953 186.368L814.93 183.987L846.447 184.115L854.389 184.599L870.777 187.822L874.638 189.634"
        stroke="#D0D0D0" stroke-width="2" stroke-linecap="round" stroke-linejoin="round" />
      <path
        d="M485.659 128.483L503.408 123.908L524.175 127.046L530.229 151.026L534.626 160.585L540.672 167.736L547.799 173.017L554.968 176.614L583.627 184.956L588.5 187.133L596.136 193.554L608.688 207.644L613.4 214.303L617.346 224.074L625.96 238.598L644.397 247.501L659.807 252.833L663.939 253.412L685.132 250.291L713.102 238.53L731.445 229.822L745.392 225.341L757.604 215.315L774.859 205.442L783.065 198.086L802.854 193.12L818.093 190.254L849.048 190.373L868.242 193.128L874.195 192.873L880.395 195.544"
        stroke="#D0D0D0" stroke-width="2" stroke-linecap="round" stroke-linejoin="round" />
      <path d="M444.849 86.5508L455.428 85.5474" stroke="#D0D0D0" stroke-width="2" stroke-linecap="round"
        stroke-linejoin="round" />
      <path d="M438.139 92.9456L442.127 94.4253L460.649 90.3181L478.235 87.75" stroke="#D0D0D0" stroke-width="2"
        stroke-linecap="round" stroke-linejoin="round" />
      <path
        d="M436.523 97.8269L439.058 99.145L445.062 100.803L462.189 98.4479L480.422 93.099L494.845 90.8709L498.102 90.7605"
        stroke="#D0D0D0" stroke-width="2" stroke-linecap="round" stroke-linejoin="round" />
      <path
        d="M430.273 100.429L440.282 102.997L451.95 106.186L471.951 101.679L489.546 98.5497L503.68 95.0886L510.194 94.8505"
        stroke="#D0D0D0" stroke-width="2" stroke-linecap="round" stroke-linejoin="round" />
      <path
        d="M406.334 12.3896L411.181 15.1278L428.427 16.0293L451.269 20.6978L470.208 24.686L488.194 26.6164L521.998 28.7253L530.459 33.9467L561.95 38.2241"
        stroke="#D0D0D0" stroke-width="2" stroke-linecap="round" stroke-linejoin="round" />
      <path d="M531.106 38.3348L537.178 41.3366L564.986 44.8232" stroke="#D0D0D0" stroke-width="2"
        stroke-linecap="round" stroke-linejoin="round" />
      <path d="M535.264 44.9762L541.005 47.8589L568.362 51.5581" stroke="#D0D0D0" stroke-width="2"
        stroke-linecap="round" stroke-linejoin="round" />
      <path d="M539.074 52.0596L539.406 52.1786L544.832 54.3726L571.398 58.1567" stroke="#D0D0D0" stroke-width="2"
        stroke-linecap="round" stroke-linejoin="round" />
      <path d="M550.146 66.5503L552.477 67.4092" stroke="#D0D0D0" stroke-width="2" stroke-linecap="round"
        stroke-linejoin="round" />
      <path d="M551.32 72.0859L556.304 73.9312" stroke="#D0D0D0" stroke-width="2" stroke-linecap="round"
        stroke-linejoin="round" />
      <path d="M555.7 78.6169L560.13 80.4451L602.54 86.874" stroke="#D0D0D0" stroke-width="2" stroke-linecap="round"
        stroke-linejoin="round" />
      <path d="M556.865 84.1528L563.948 86.9591L574.298 89.6547L603.331 93.4048" stroke="#D0D0D0" stroke-width="2"
        stroke-linecap="round" stroke-linejoin="round" />
      <path d="M570.378 99.7318L571.475 100.327L582.386 103.04L605.151 106.365" stroke="#D0D0D0" stroke-width="2"
        stroke-linecap="round" stroke-linejoin="round" />
      <path d="M572.767 105.531L575.301 106.849L586.535 109.681L606.069 112.564" stroke="#D0D0D0" stroke-width="2"
        stroke-linecap="round" stroke-linejoin="round" />
      <path d="M570.394 109.375L579.128 113.363L590.464 116.424L615.67 120.838" stroke="#D0D0D0" stroke-width="2"
        stroke-linecap="round" stroke-linejoin="round" />
      <path d="M569 117.743L570.208 118.568L585.345 122.088L604.981 125.201L623.01 129.605" stroke="#D0D0D0"
        stroke-width="2" stroke-linecap="round" stroke-linejoin="round" />
      <path
        d="M571.262 127.463L576.909 133.143L590.124 137.276L614.352 147.378L646.889 153.935L670.411 158.289L691.263 162.226L720.679 168.008L723.604 167.77"
        stroke="#D0D0D0" stroke-width="2" stroke-linecap="round" stroke-linejoin="round" />
      <path
        d="M564.016 126.102L566.644 128.211L572.282 137.48L588.695 143.177L599.07 148.339L611.784 157.387L631.369 162.175L663.114 168.816L696.442 175.287L709.19 176.605L714.922 175.891L718.799 174.114L719.922 174.148"
        stroke="#D0D0D0" stroke-width="2" stroke-linecap="round" stroke-linejoin="round" />
      <path
        d="M556.005 124.273L560.904 128.916L565.717 139.393L570.173 143.688L593.696 151.63L606.86 160.474L615.151 167.694L624.157 173.485L639.158 177.898C658.276 180.755 707.557 194.387 723.783 179.539L725.807 179.157"
        stroke="#D0D0D0" stroke-width="2" stroke-linecap="round" stroke-linejoin="round" />
      <path
        d="M549.968 123.738L552.681 126.629C563.889 158.237 570.31 145.584 593.483 158.356L606.988 167.319L620.884 181.342L626.318 186.563L634.176 189.846L652.672 193.477L677.827 195.977L701.724 195.747L710.866 194.03L722.465 189.25L731.173 183.587L733.988 183.119"
        stroke="#D0D0D0" stroke-width="2" stroke-linecap="round" stroke-linejoin="round" />
      <path
        d="M368.881 22.7217L378.236 38.2836L392.225 49.5L402.642 63.7522L408.995 68.5568L428.869 78.1831L434.184 80.1475L450.486 78.9909L478.423 78.5657L496.017 79.0249L519.174 80.7853L523.834 82.5114L552.842 107.793L564.603 118.389L580.336 127.99L599.376 132.19L629.056 140.345L661.797 147.352L680.82 152.123L698.721 156.86L722.958 163.374L747.059 160.567"
        stroke="#D0D0D0" stroke-width="2" stroke-linecap="round" stroke-linejoin="round" />
      <path
        d="M444.704 626.785L428.096 609.871L408.009 589.59L386.927 568.943L374.86 557.105L353.14 538.678L332.186 527.895L305.679 515.25L291.494 506.602L276.323 500.615L249.348 481.558L245.7 476.617L242.825 464.976L240.342 441.565L241.839 426.811L245.938 411.13C257.401 380.321 261.662 363.11 260.709 329.851L260.556 310.327L260.284 291.142L259.094 265.75L255.802 239.397L254.96 217.16L255.462 198.443L254.994 185.424L251.244 166.461L246.159 147.004L240.81 114.979L242.298 100.225L244.866 80.0113L260.522 64.2539L287.199 40.6815L303.919 26.6503L318.223 14.558"
        stroke="#D0D0D0" stroke-width="2" stroke-linecap="round" stroke-linejoin="round" />
      <path
        d="M391.137 31.5232L414.047 47.7484L424.099 55.81L446.456 58.2251L477.581 59.9173L496.163 60.7507L519.676 62.0773L524.439 64.0245L546.83 82.1375L557.485 89.102L567.656 93.8132L578.448 96.2964"
        stroke="#D0D0D0" stroke-width="2" stroke-linecap="round" stroke-linejoin="round" />
      <path
        d="M376.917 676.158L366.024 666.277L349.118 651.701L339.891 618.426L337.306 608.026L334.797 602.558L312.346 582.541L295.21 564.487L282.964 551.638L266.977 543.262L241.651 521.798L228.164 512.274L209.94 503.821L194.632 491.55L185.49 483.064L171.22 473.625L169.162 467.953L169.307 463.471L173.057 458.437L197.141 394.395L202.804 371.92L206.24 345.796L207.992 319.605L208.672 298.881L209.94 270.436L209.523 234.754L208.859 210.51L208.23 188.732L206.266 166.469L202.405 147.276L200.364 130.83L196.937 111.986L197.413 93.8302L198.935 74.9264L201.359 65.8104L209.166 46.7792L214.795 35.6307L219.217 30.8432L234.057 22.9176"
        stroke="#D0D0D0" stroke-width="2" stroke-linecap="round" stroke-linejoin="round" />
      <path
        d="M395.023 15.3829L402.404 23.0277L422.916 37.0419L445.954 39.1423L464.756 40.4263L488.593 41.8807L508.867 42.7734L521.734 43.7514L542.56 58.4459L548.649 60.8949L574.434 64.7642"
        stroke="#D0D0D0" stroke-width="2" stroke-linecap="round" stroke-linejoin="round" />
      <path
        d="M158.482 492.724L151.831 469.849L146.95 450.851L142.222 430.961L144.339 417.568L148.966 399.438L155.122 382.813L154.757 370.015L155.76 349.419L156.925 330.948L155.488 309.817L154.561 293.413L158.26 255.852L162.053 232.313L164.383 219.371L164.757 190.79L163.32 179.862L156.568 153.178L155.403 144.053L157.512 127.632L160.259 101.815L158.312 89.1954L157.75 78.9654L164.792 48.6922L169.443 30.0008L171.484 15.8251"
        stroke="#D0D0D0" stroke-width="2" stroke-linecap="round" stroke-linejoin="round" />
      <path d="M450.428 12.2623L468.677 16.5568L484.478 20.3239L494.275 22.4413L523.121 25.1795L526.429 26.9653"
        stroke="#D0D0D0" stroke-width="2" stroke-linecap="round" stroke-linejoin="round" />
      <path
        d="M118.061 394.616L116.752 369.564L115.187 355.38L116.071 338.695L118.793 310.412L121.319 291.321L123.793 273.905L127.578 257.544L128.105 248.47L127.152 239.805L123.045 211.071L124.091 189.352L123.189 179.003L114.252 154.147L112.559 143.883L112.347 126.603L117.177 98.728L118.376 79.1438L122.832 63.0208L127.373 47.697L141.261 27.5091L149.408 15.2212"
        stroke="#D0D0D0" stroke-width="2" stroke-linecap="round" stroke-linejoin="round" />
      <path
        d="M65.6167 650.74L42.1623 630.348L31.5322 622.822L10.4675 611.819L-4.54219 604.378L-17.4175 600.364L-24.935 593.612L-30.08 589.632L-47.7516 571.001L-58.2287 555.405L-59.7848 551.434L-41.6968 522.971L-32.8779 500.156L-25.4028 473.82L-18.0979 449.499L-10.8098 432.356L-2.99459 412.754L3.90233 390.551L7.36356 377.098L9.82115 343.415L11.6411 328.78L26.2426 310.761L41.6434 292.639L56.1941 276.295L66.0927 261.813L76.5954 249.253L88.9434 235.307L100.688 222.458L109.685 211.42L110.705 207.644L105.288 191.649L99.5139 176.095L96.3334 160.176L96.4355 143.024L97.9748 137.352L102.482 129.758L106.845 112.861L110.816 94.4848L112.585 81.5336L112.619 66.618L114.498 50.2994L117.262 41.3108L131.608 17.3303"
        stroke="#D0D0D0" stroke-width="2" stroke-linecap="round" stroke-linejoin="round" />
      <path
        d="M47.1456 701.176L23.572 684.705C-6.64303 661.404 -49.342 633.563 -67.5238 599.403L-74.2505 588.978L-86.2754 552.029L-91.3949 530.098L-91.582 518.873L-87.9762 494.323L-79.8377 464.645L-72.9834 447.152L-63.9606 428.385L-53.9343 409.982L-45.3365 393.885L-39.6644 381.623L-34.1452 367.226L-31.934 357.65L-30.6499 338.849L-26.5256 322.615L-20.5897 302.504L-17.6388 266.941L-16.4055 249.815L-14.5006 229.355L-10.2911 196.521L-7.92697 192.669L11.9811 177.175L27.2629 166.01L43.7525 155.669L58.8641 146.519L72.071 140.448L84.4615 135.584L92.5234 125.532L98.3658 114.843L102.49 98.6009L106.725 78.9998L107.499 62.0944L107.593 45.4951L108.29 34.4232"
        stroke="#D0D0D0" stroke-width="2" stroke-linecap="round" stroke-linejoin="round" />
      <path
        d="M759.832 397.746L750.979 370.083L746.753 355.482L744.414 330.617L742.229 308.456L741.846 302.835L768.566 288.345L773.226 282.885L782.87 266.04L792.726 252.68L802.948 241.914L813.74 237.773L820.407 236.089L840.859 234.967L858.573 235.094L886.365 228.938L903.407 225.791L911.146 225.817L918.119 228.402"
        stroke="#D0D0D0" stroke-width="2" stroke-linecap="round" stroke-linejoin="round" />
      <path
        d="M732.729 417.38L732.244 407.941L725.875 383.28L722.575 367.701L722.473 350.09L719.633 316.917L721.317 299.586L722.558 289.084L725.96 284.484L732.687 281.116L753.947 275.759L765.776 270.861L779.519 255.163L792.581 239.78L799.878 232.84L815.976 227.645L832.499 226.386L852.475 226.038L863.352 226.276L883.907 221.794L897.904 219.217L905.72 220.034L910.15 221.862"
        stroke="#D0D0D0" stroke-width="2" stroke-linecap="round" stroke-linejoin="round" />
      <path
        d="M573.72 532.98L564.425 512.146L557.128 495.088L540.052 465.146L532.347 450.205L531.157 448.819L552.094 443.334L571.356 437.228L591.646 433.971L612.515 433.759L622.108 435.417L645.027 444.465L660.53 454.159L669.17 457.365L676.577 457.272L696.451 432.679L701.613 422.313L703.475 413.18L700.652 396.819L698.271 380.253L697.965 362.183L698.73 342.25L696.808 325.481L697.514 310.812L693.721 279.169L693.619 275.351L699.997 272.417L731.292 265.478L753.012 259.908L765.462 256.396L770.998 251.643L784.766 235.375L794.189 225.255L799.317 222.619L816.061 218.223L845.137 217.271L864.518 218.019L889.35 213.223L895.422 212.627L902.174 215.323"
        stroke="#D0D0D0" stroke-width="2" stroke-linecap="round" stroke-linejoin="round" />
      <path
        d="M556.142 545.753L541.609 533.95L537.816 529.902L530.859 509.374L524.201 486.499L521.692 477.442L512.423 472.876L501.478 464.67L494.309 457.484L490.082 449.499L484.104 433.486L486.579 416.071L488.05 401.878L486.358 395.203L484.087 392.66L481.093 391.555L467.402 395.373L450.087 396.716L433.513 396.062L428.07 394.429L422.177 389.412L416.751 390.806L411.64 389.292L405.73 384.836L400.874 379.071L389.453 347.633L381.111 328.295L376.485 318.839L374.622 310.59L372.904 287.656L373.865 278.94L373.593 273.548L367.436 259.551L357.027 241.719L351.219 227.288L346.55 212.33L345.946 203.222L343.99 201.36L341.839 202.074L331.88 197.822L318.776 190.33L312.644 182.388L307.516 171.231L306.198 163.561L306.36 151.902L312.933 142.812L322.101 133.355L324.975 131.204L348.463 133.092L373.423 134.58L397.311 131.323L422.024 123.27L425.944 123.397C461.415 139.444 502.065 153.254 528.521 183.272L535.111 187.414L543.003 189.582L561.542 192.091L578.066 194.421L582.828 196.368L587.429 199.77L598.977 213.495L601.18 218.274L603.884 238.547L606.121 242.212L619.005 252.841L614.03 254.024L599.411 251.642L584.852 247.578L569.74 246.523L561.882 246.829L544.381 253.768L538.445 257.051L533.292 274.041L528.257 294.289L525.06 302.929L506.3 324.519L486.893 345.311L480.039 352.599L490.065 378.612L495.908 391.929L498.493 395.152L507.626 400.611L516.641 402.814L529.21 402.55L563.09 398.834L574.451 397.745L581.136 399.089L597.855 409.055L621.411 412.295L644.457 421.011L659.152 427.772L667.214 435.102L675.625 417.993L673.984 392.813L673.882 368.586L674.877 348.543L673.465 319.672L669.97 303.073L670.701 284.254L671.687 274.416L673.771 272.349L681.076 272.026L695.55 265.095L720.875 255.384L747.28 250.418L761.644 246.846L774.162 234.473L784.996 222.041L790.796 216.063L800.321 212.789L816.708 208.835L847.348 208.265L862.001 209.532L869.076 209.311L884.537 206.343L889.469 206.283L895.337 208.826"
        stroke="#D0D0D0" stroke-width="2" stroke-linecap="round" stroke-linejoin="round" />
      <path
        d="M538.793 558.415L521.921 546.314L513.842 539.545L506.273 530.888L496.757 516.781L485.481 501.27L478.864 473.692L461.967 451.94L454.976 442.739L451.498 439.371L435.298 430.544L426.794 426.454L418.987 421.488L406.537 411.215L399.164 399.99L388.934 380.134L382.496 364.334L373.337 342.615L366.831 325.472L364.646 309.927L364.901 291.882L366.721 280.836L366.61 273.99L362.146 263.08L352.034 246.481L345.877 232.483L341.396 218.546L338.147 211.488L324.549 202.295L316.538 196.878L306.095 180.16L302.277 170.058L301.809 153.45L302.464 147.072L321.836 127.411L331.301 115.608L333.495 113.771L359.229 112.147L384.265 111.39L393.466 111.016L423.129 119.724L435.672 123.61L450.826 130.158L464.263 134.18L475.888 135.464L488.142 134.512L514.267 141.536L517.941 145.915L526.666 163.697L530.314 168.637L536.437 173.552L552.195 182.031L566.304 186.308L580.778 189.582L586.407 192.235L591.756 196.674L603.968 210.637L607.464 217.032L613.093 233.478L616.988 241.344L621.113 245.52L631.488 250.681L647.569 256.251L663.548 261.592L672.724 262.34L684.893 260.605L719.701 245.707C758.82 229.397 749.635 248.53 782.844 211.428L787.598 206.76L804.572 202.27L818.68 199.361L849.524 199.251L866.839 201.504L881.041 199.387L898.517 206.794L919.641 216.122L926.64 218.138"
        stroke="#D0D0D0" stroke-width="2" stroke-linecap="round" stroke-linejoin="round" />
      <path
        d="M492.726 592.014L478.337 579.318L459.917 559.657L433.725 533.899L414.386 514.647L397.659 498.064L383.865 484.271L358.259 444.184L343.887 420.723L331.208 400.348L320.152 381.708L314.098 367.94L312.142 334.903L311.087 302.002L310.611 282.358L309.599 265.164L307.124 244.78L303.365 225.817L297.71 213.52L289.104 198.996L281.059 180.9L280.141 174.701L280.251 147.336L280.515 132.318L281.144 130.099L290.55 127.156L297.021 121.425L307.864 105.404L318.579 89.7145L329.907 75.9553L337.798 67.9108L359.28 55.827L364.935 54.3304L369.468 56.3882L385.864 76.4401L412.711 95.8202L423.01 103.218L434.158 105.268L449.032 110.013L455.844 111.016L487.369 103.967L506.316 100.769L520.084 98.3032L535.978 113.066L547.178 127.224L555.419 146.332L558.761 150.593L566.788 155.457L583.797 160.049L602.302 170.296L616.427 184.217L630.884 198.256L639.124 203.571L652.638 205.357C678.082 206.471 701.63 208.792 724.82 196.726L734.473 189.523L749.083 185.288L772.409 178.425L780.25 178.681L795.549 177.158L812.846 176.376L830.628 177.856L848.555 178.442L876.227 182.822L894.613 189.812"
        stroke="#D0D0D0" stroke-width="2" stroke-linecap="round" stroke-linejoin="round" />
      <path
        d="M405.04 313.142L403.654 314.332L401.996 310.131L401.18 293.949L398.22 277.927L382.726 247.816L373.626 231.029L370.276 223.742L368.464 213.818L369.417 208.69L372.989 205.663L407.821 200.407L435.332 192.448L452.323 187.397L455.58 187.278L473.983 197.295L490.992 205.476L524.285 219.694L533.538 224.813L535.272 226.778L533.657 228.07L523.316 228.963L514.293 226.769L496.247 230.102L488.687 234.678L482.249 242.884L477.895 252.603L472.325 268.684L463.175 281.176L457.834 289.969L455.274 292.8L423.307 303.09L409.284 306.781L405.04 313.142Z"
        stroke="#D0D0D0" stroke-width="2" stroke-linecap="round" stroke-linejoin="round" />
      <path
        d="M552.876 220.06L554.237 223.019L554.364 229.303L552.944 231.616L550.776 232.892L524.124 234.941L515.62 234.44L504.692 235.877L502.03 238.479L495.975 258.922L490.294 278.361L481.68 291.423L472.767 303.243L462.596 312.334L447.408 320.702L429.779 331.569L424.915 332.981L414.183 331.85L410.764 326.799L399.726 321.39L394.13 314.035L391.97 297.929L388.67 278.753L381.025 258.539C374.281 242.382 354.628 220.681 363.039 201.428L366.951 194.94L404.905 183.281L423.835 177.056L439.703 171.963L449.322 169.471L453.82 169.054L464.068 174.548L497.293 190.994L507.201 196.921L510.798 199.957L541.132 215.527L549.253 217.585L552.876 220.06Z"
        stroke="#D0D0D0" stroke-width="2" stroke-linecap="round" stroke-linejoin="round" />
      <path
        d="M568.006 227.177L570.208 231.956L570.591 233.989L551.567 239.422L534.703 240.554L525.374 241.259L521.241 244.261L517.534 254.789L512.15 275.47L507.159 291.006L488.781 314.63L472.998 330.71L456.006 342.939L440.512 353.653L429.355 358.781L420.91 373.425L416.904 379.131L413.911 381.614L410.467 380.712L405.586 375.508L403.808 368.05L404.582 354.725L407.601 337.887L407.346 335.523L401.061 332.071L391.443 324.349L385.533 316.305L384.104 311.994L380.592 282.162L381.255 275.793L375.234 260.903L366.45 244.805L359.672 232.475L354.008 213.563L353.438 206.93L355.301 201.385L356.185 194.906L354.612 191.487L351.891 189.157L348.455 187.703L336.09 192.006L321.608 185.696L316.429 179.25L311.403 168.323L310.45 159.658L310.739 154.283L314.753 148.024L317.253 146.876L343.114 158.714L352.129 160.916L366.356 161.273L378.781 165.491L399.947 162.931C469.077 148.466 430.086 140.779 492.293 171.784L509.786 182.226L520.221 192.32L540.529 202.295L558.115 206.352L562.155 209.736L565.004 215.323L567.98 227.194L568.006 227.177Z"
        stroke="#D0D0D0" stroke-width="2" stroke-linecap="round" stroke-linejoin="round" />
      <path
        d="M562.954 361.366L581.178 359.606L598.688 359.283L613.145 363.118L621.564 362.837L632.458 358.926L636.259 355.796L642.178 342.871L642.867 338.967L638.47 329.401L627.9 313.022L621.666 301.262L610.424 291.814L592.234 282.247L583.653 280.394L576.935 280.181L565.565 284.858L553.455 291.525L550.317 294.901L545.325 310.437L529.907 329.112L527.764 336.442L530.604 345.617L535.333 355.312L538.811 358.671L543.012 360.609L562.954 361.366Z"
        stroke="#D0D0D0" stroke-width="2" stroke-linecap="round" stroke-linejoin="round" />
      <path
        d="M48.7784 84.3824L34.8826 135.745L24.6098 182.397L27.2629 200.765L32.8757 217.772L44.2456 223.299L53.7957 239.873L61.3049 253.803L64.647 271.856L65.9736 286.142L57.1465 340.141L58.2604 436.182L70.5405 458.675L77.0801 481.881L86.8257 506.083L105.985 537.555L135.138 561.944L161.738 571.783L188.815 583.884L216.939 595.236L249.969 617.287L279.01 631.241L315.892 649.048L349.135 664.933L378.287 679.117L419.506 697.962L458.897 717.648L484.597 717.146L512.805 729.272L568.43 777.633L592.854 798.961L624.43 790.227L635.638 787.004L668.719 780.354L681.518 766.187L682.64 742.224L686.646 719.136L684.902 690.147L598.722 632.933L565.471 627.814L517.754 594.854L485.957 562.301L422.985 502.146L399.088 471.201L370.905 454.916L350.657 439.669L333.062 408.588L310.951 353.926L309.021 320.327L310.841 309.281L310.62 302.206L306.266 291.525L296.146 274.934L289.989 260.937L285.507 247L282.259 239.933L260.65 225.323L250.198 208.605L244.636 193.511L245.912 181.886L246.567 175.517L265.939 155.848L275.413 144.045L303.34 140.584L328.376 139.827L337.816 139.351L379.69 151.825L408.383 162.634L420.229 163.807L432.262 162.965L458.396 169.981L470.786 192.15L496.213 210.246L530.536 220.68L548.105 239.082L557.23 261.924L565.25 273.965L591.697 284.696L616.853 290.794L670.301 312.835L685.957 331.289L710.678 357.446L741.404 447.05L767.987 477.859L784.052 494.203L803.441 511.772L810.678 516.713L812.294 525.633L783.261 573.467L781.764 598.425L784.452 619.268L790.438 649.065L765.98 707.486L757.851 798.408L719.08 907.264L712.566 921.304L667.622 927.342L652.213 904.637L626.658 869.482L612.66 865.434L595.575 849.286L551.065 807.685L518.239 786.086L476.952 765.898L441.37 746.118L392.659 722.997L361.746 707.962L330.57 697.749L293.331 680.384L254.348 665.205L218.265 647.313L183.807 637.781L146.32 624.668L115.059 620.28L67.9211 593.961L26.8888 572.54L-3.15625 568.985L-17.477 578.05L-33.6689 583.016L-49.5377 532.921L-31.4579 473.845L-23.7021 435.519L-13.9734 388.289L-28.8897 367.838L-29.6379 339.214L-39.8429 325.421L-43.6103 303.43L-51.536 274.79L-58.2967 248.105L-64.5644 223.674L-65.6784 196.045L-63.5609 172.456L-60.2527 150.244"
        stroke="#D0D0D0" stroke-width="2" stroke-linecap="round" stroke-linejoin="round" />
      <path
        d="M164.749 458.947L164.664 458.156L172.148 438.444L178.874 417.687L188.722 391.095L192.983 373.96L195.551 353.747L196.767 333.593L197.524 317.249L197.855 307.163L198.315 279.365L200.56 262.051L200.645 228.631L200.203 207.874L199.582 189.123L197.855 169.777L194.675 153.858L189.436 122.062L187.004 107.172L187.795 89.7057L188.935 78.9739L194.641 62.009L202.796 42.5355L210.339 27.7473L216.173 21.208"
        stroke="#D0D0D0" stroke-width="2" stroke-linecap="round" stroke-linejoin="round" />
      <path
        d="M160.131 456.106L159.536 453.615L169.043 420.28L176.595 398.324L183.058 375.763L184.963 361.919L186.154 335.719L188.143 305.837L187.625 287.316L188.747 269.968L191.222 252.552L191.307 205.34L190.142 179.395L188.577 168.799L183.152 135.983L181.995 116.101L178.738 99.3914L177.573 90.2669L180.796 77.4772L189.036 55.206L196.307 38.6151L205.789 19.6347L213.341 11.4713L223.07 5.62058"
        stroke="#D0D0D0" stroke-width="2" stroke-linecap="round" stroke-linejoin="round" />
      <path
        d="M155.403 453.037L154.365 447.169L163.252 411.904L169.197 391.24L173.228 377.804L175.013 354.079L175.864 334.928L177.513 318.72L177.828 305.607L176.578 289.084L178.662 263.02L181.995 243.275L182.905 229.065L182.65 202.703L181.544 181.699L178.917 165.789L175.881 148.985L174.248 140.626L175.651 121.501L175.668 114.324L171.663 96.0239L167.241 80.4025L170.098 78.8124L185.337 44.7634L194.913 22.9852L201.334 11.7518"
        stroke="#D0D0D0" stroke-width="2" stroke-linecap="round" stroke-linejoin="round" />
      <path
        d="M149.05 441.616L148.667 439.584L153.651 417.423L160.344 391.172L163.039 380.831L165.31 345.575L167.3 325.906L166.73 309.06L165.659 293.549L168.346 262.799L171.552 240.358L174.035 225.97L173.763 200.169L172.938 183.995L171.45 174.743L165.523 146.851L164.902 138.305L168.839 113.873L164.91 93.3369L162.444 83.1578L163.099 76.7885L178.134 42.2889L189.385 16.9733L197.005 3.53731"
        stroke="#D0D0D0" stroke-width="2" stroke-linecap="round" stroke-linejoin="round" />
      <path
        d="M156.304 202.397L156.075 188.715L154.161 178.553L147.936 159.624L145.904 149.802L147.46 126.187L152.452 93.8215L153.915 69.4243L156.9 50.1208L160.701 33.1983L162.852 15.6551L164.638 12.3473L166.246 0.850202"
        stroke="#D0D0D0" stroke-width="2" stroke-linecap="round" stroke-linejoin="round" />
      <path
        d="M138.505 249.482L140.614 229.482L144.764 205.501L147.367 194.37L147.094 188.978L140.955 170.831L136.405 155.542L137.366 126.416L139.517 111.909L145.02 84.2716L147.027 64.0412L152.656 32.4839L154.264 24.5669L158.788 16.4202"
        stroke="#D0D0D0" stroke-width="2" stroke-linecap="round" stroke-linejoin="round" />
      <path
        d="M133.122 262.995L133.726 258.301L133.513 251.226L127.178 221.862L126.608 215.229L128.81 206.216L130.443 173.187L126.387 160.151L125.792 151.052L126.438 134.469L128.445 117.828L132.739 99.57L138.607 70.9465L141.141 51.8471L144.62 34.797L148.217 27.6284"
        stroke="#D0D0D0" stroke-width="2" stroke-linecap="round" stroke-linejoin="round" />
      <path d="M118.963 116.391L122.781 102.495L126.106 86.3468L133.488 52.604L135.996 41.2431L140.359 34.5506"
        stroke="#D0D0D0" stroke-width="2" stroke-linecap="round" stroke-linejoin="round" />
      <path d="M116.896 76.5166L116.811 75.7256L119.464 56.2947L121.412 51.541L125.179 45.9455" stroke="#D0D0D0"
        stroke-width="2" stroke-linecap="round" stroke-linejoin="round" />
      <path d="M343.352 72.8086L354.144 68.6674L366.67 62.9103L370.353 66.737" stroke="#D0D0D0" stroke-width="2"
        stroke-linecap="round" stroke-linejoin="round" />
      <path d="M342.553 80.0708L346.337 77.5027L361.066 72.9363L367.725 71.8052L370.242 73.6845" stroke="#D0D0D0"
        stroke-width="2" stroke-linecap="round" stroke-linejoin="round" />
      <path d="M341.507 87.9966L345.767 84.663L353.838 81.2191L360.411 79.3058L370.004 80.964L377.658 86.823"
        stroke="#D0D0D0" stroke-width="2" stroke-linecap="round" stroke-linejoin="round" />
      <path
        d="M328.47 109.443L330.698 106.484L335.749 99.4765L342.757 94.3147L351.006 92.4609L376.339 92.9455L399.411 107.717"
        stroke="#D0D0D0" stroke-width="2" stroke-linecap="round" stroke-linejoin="round" />
      <path
        d="M464.349 612.507L446.941 596.24L421.845 571.086L405.662 555.082L391.434 540.931L369.579 519.808L333.454 499.45L320.987 489.73L310.833 477.851L297.311 455.647L293.016 449.899L286.995 445.222L282.914 439.924L276.45 424.685L273.406 411.462L273.585 399.242L279.963 378.926L281.647 361.604L281.221 323.457L280.584 298.09L279.852 276.082L278.857 261.915L275.047 230.842L272.76 211.479L271.663 197.083L267.878 185.857L266.246 163.705L259.782 131.646L257.112 113.839L256.245 105.965L257.265 98.5921L273.431 84.5439L286.12 73.7357L302.796 57.7997L321.947 41.2682L339.041 26.2337L347.979 16.8795"
        stroke="#D0D0D0" stroke-width="2" stroke-linecap="round" stroke-linejoin="round" />
      <path
        d="M454.467 619.812L447.383 613.409L414.812 580.389L401.461 566.936L389.291 554.877L376.357 542.343L362.733 530.123L348.965 522.385L318.928 508.064L297.625 497.715L279.852 489.067L276.161 485.24L270.429 475.189L264.409 460.29L258.957 441.837L256.746 423.818L257.648 413.197L268.184 379.105L270.123 367.727L271.093 338.041L270.999 316.841L270.489 294.731L269.868 275.98L269.035 263.956L265.029 231.863L263.856 209.498L264.017 194.251L261.381 175.33L256.874 155.329L252.307 137.012L249.662 118.644L248.429 108.176L250.411 92.0866L252.35 87.8943L278.712 63.6246L301.214 44.1766L315.416 31.8547L327.883 21.1569"
        stroke="#D0D0D0" stroke-width="2" stroke-linecap="round" stroke-linejoin="round" />
      <path
        d="M435.052 633.988L417.916 615.926L400.984 598.884L384.792 582.88L360.845 560.796L348.293 550.294L330.222 540.396L307.167 528.652L290.848 516.568L270.098 506.245L255.649 495.232L239.508 484.722L223.095 479.024L214.872 476.737L220.162 472.646L221.76 468.326C220.23 428.095 244.271 399.472 248.293 359.844L250.164 340.498L250.436 321.892L250.351 303.719L249.288 267.791L246.924 250.673L245.938 229.329L246.014 209.702L244.977 186.453L243.701 170.483L238.913 152.268L233.266 119.001L233.93 105.455L236.566 90.1732L237.17 78.3105L238.445 70.2745L240.818 66.4223L259.323 49.0833L283.058 29.8988L296.971 19.3627"
        stroke="#D0D0D0" stroke-width="2" stroke-linecap="round" stroke-linejoin="round" />
      <path
        d="M425.519 640.851L405.236 619.557L388.296 602.507L371.653 586.716L357.384 573.688L343.751 562.029L328.002 552.99L308.392 542.148L294.53 530.591L286.553 524.052L279.903 521.586L274.188 518.15L251.627 501.483L237.246 491.822L214.957 484.144L203.919 475.147L201.614 470.138L204.539 456.098L216.037 427.092L225.06 404.727L232.815 380.194L237.425 356.009L239.5 333.534L240.035 313.703L240.129 297.104L239.721 275.224L237.05 247.212L236.974 225.451L235.937 202.202L234.916 181.98L233.981 166.138L229.66 150.737L226.182 129.988L225.417 115.719L228.351 94.5105L229.099 64.926L229.261 59.8833L266.747 31.6084L289.147 15.5193"
        stroke="#D0D0D0" stroke-width="2" stroke-linecap="round" stroke-linejoin="round" />
      <path
        d="M406.903 654.38L403.009 636.309L399.496 630.476L386.91 617.499L370.166 601.47L353.71 586.69L338.879 573.645L309.863 555.541L294.828 542.037L285.473 533.091L275.515 528.848L260.599 518.601L247.732 507.41L234.772 499.025L216.488 492.256L202.873 483.063L192.149 474.747L188.144 470.24L187.166 465.724L205.254 427.058L214.311 404.14C230.477 361.996 229.712 319.358 229.737 275.113L228.096 249.933L227.254 227.696L226.497 202.661L225.341 176.155L223.172 160.049L219.634 141.536L217.058 120.932L217.772 109.29L218.784 78.4722L219.507 63.2506L223.81 51.6175L262.818 24.8562"
        stroke="#D0D0D0" stroke-width="2" stroke-linecap="round" stroke-linejoin="round" />
      <path
        d="M386.221 669.397L384.282 666.982L380.081 641.054L371.773 620.594L350.028 599.701L334.006 585.27L311.087 569.045L295.006 553.27L284.257 542.479L269.911 535.285L243.701 513.677L230.639 505.063L215.34 499.408L194.53 484.152L175.677 470.75L172.709 469.083L180.269 460.92L186.817 445.766L197.991 419.659L205.849 398.944L212.601 374.037L216.547 346.017L218.554 319.171C221.173 280.011 217.729 242.016 217.653 202.619L216.692 183.74L215.867 171.155C209.718 139.784 203.255 94.5358 210.645 63.208L217.338 47.1615L222.271 40.4775L262.571 15.3236"
        stroke="#D0D0D0" stroke-width="2" stroke-linecap="round" stroke-linejoin="round" />
      <path
        d="M104.685 34.95L104.668 55.9204L101.436 62.0941L75.8302 94.0085L64.2986 100.14L54.5444 107.113L37.9103 118.346L20.2217 127.862L0.0330136 137.973L-7.68027 144.002L-12.604 150.678L-20.1898 166.58L-25.8024 183.783L-28.4302 199.064L-33.1075 235.698L-35.7521 261.745L-37.9548 284.552L-39.4345 305.922L-41.3053 318.644L-46.4589 335.634L-48.8826 354.955L-50.9065 361.953L-60.5247 381.826L-71.1293 400.773L-83.2561 421.794L-99.601 451.651L-103.19 461.855L-112.043 477.094C-112.043 477.094 -116.346 494.246 -116.762 495.487C-117.179 496.729 -112.485 514.017 -112.485 514.017"
        stroke="#D0D0D0" stroke-width="2" stroke-linecap="round" stroke-linejoin="round" />
      <path
        d="M-4.74642 686.133L-31.9425 667.187L-49.2995 652.824L-66.0866 637.925L-74.1315 630.034L-91.6415 606.359L-96.5993 596.775C-96.5993 596.775 -119.475 540.379 -119.884 539.146C-120.292 537.913 -128.116 504.561 -128.116 503.319C-128.116 502.078 -126.125 482.451 -126.125 482.451L-113.267 451.327L-103.352 436.293L-87.2107 409.004L-76.2745 390.185L-66.7415 373.11L-61.0012 362.191L-57.1148 353.237L-55.5925 340.957L-51.1278 324.273L-47.5561 287.044L-43.8993 254.194L-41.144 228.376L-36.6709 194.319L-33.5159 176.588L-29.1534 163.272L-21.4486 147.029L-12.3916 130.728L-4.35525 121.799L17.8574 107.717L38.8712 92.8096L52.0864 83.1492L56.2024 80.7002L84.0449 48.8623L97.6685 33.496"
        stroke="#D0D0D0" stroke-width="2" stroke-linecap="round" stroke-linejoin="round" />
      <path
        d="M79.4528 731.832L64.324 721.134L44.773 708.608L28.7172 698.889L13.4779 687.961L-13.0464 669.262L-26.2873 659.074L-41.5692 646.233L-56.2898 633.418L-65.1085 625.051L-74.2759 610.509L-86.2242 591.724L-92.0326 573.705L-98.8953 550.379L-104.312 530.795L-105.401 523.023L-99.1845 497.545L-95.7828 479.152L-89.711 458.156L-73.4936 425.034L-62.4213 405.322L-53.0923 387.796L-43.3466 367.591L-40.9399 359.028L-38.7543 336.782L-32.8439 317.24L-29.8675 305.114L-28.5834 286.312L-26.6785 262.264L-24.5439 241.693L-23.0046 225.255L-21.3464 209.047L-18.0724 190.985L-12.0685 172.226L-9.55981 167.49L5.1268 157.43L21.6164 147.089L38.7521 137.548L57.2996 129.299L73.687 118.729L90.7631 107.292L100.977 89.9015L104.302 67.1284"
        stroke="#D0D0D0" stroke-width="2" stroke-linecap="round" stroke-linejoin="round" />
      <path
        d="M50.4028 55.4955L35.4272 70.9297L21.3869 81.7976L2.86498 96.1094L-5.93685 104.571L-11.0223 112.7L-21.0742 128.636L-32.7078 148.331L-39.9788 164.913L-41.9093 172.703L-44.6984 189.438L-48.1597 213.104L-51.6805 242.034L-53.4066 260.478L-55.9919 281.253L-58.9768 310.769L-61.3325 331.442L-67.345 354.351L-77.2436 372.422L-92.9169 398.945L-106.413 420.595L-117.893 435.808L-148.219 498.6C-148.687 501.67 -114.917 598.842 -114.917 598.842L-100.103 615.493L-79.3527 639.609L-68.3399 649.167L-48.823 666.404L-33.8387 677.995L-19.6709 687.205"
        stroke="#D0D0D0" stroke-width="2" stroke-linecap="round" stroke-linejoin="round" />
      <path
        d="M529.949 564.972L509.029 549.478L501.86 542.301L487.803 523.108L470.965 502.707L457.316 488.013L436.625 472.425L431.455 465.971L419.226 445.384L412.065 434.609L401.818 425.527L387.488 403.979L379.146 388.23L371.586 372.387L361.729 347.956L356.253 333.644L354.68 323.61L355.13 302.988L355.581 288.983L359.212 284.28L359.782 277.12L358.336 269.781L347.162 251.473L341.26 239.839L335.817 224.414L330.579 216.616L317.78 206.777L312.686 201.114L307.167 191.513"
        stroke="#D0D0D0" stroke-width="2" stroke-linecap="round" stroke-linejoin="round" />
      <path
        d="M520.866 571.622L504.011 558.968L496.698 552.667L483.703 535.191L470.105 518.822L459.058 506.797L444.542 494.442L431.709 482.128L422.856 474.891L416.308 466.039L406.86 449.695L402.54 444.508L395.337 438.436L385.183 422.968L373.38 403.29L364.391 386.733L349.993 353.628L345.444 341.927L344.5 336.289L344.262 295.573L344.568 275.836L344.27 264.398L338.861 251.43L331.565 234.371L326.071 224.21L315.841 214.566L303.153 194.191"
        stroke="#D0D0D0" stroke-width="2" stroke-linecap="round" stroke-linejoin="round" />
      <path
        d="M511.563 578.391L498.45 567.863L490.788 562.004L469.239 534.945L440.529 507.316L419.447 486.669L409.098 477.358L398.654 460.648L392.03 454.032L367.793 416.343L359.502 402.499L349.535 385.016L340.98 365.219L334.746 349.878L333.692 316.986L331.974 283.838L330.435 255.308L328.036 246.481L320.91 230.996L313.8 222.126L305.186 207.602L299.879 198.452"
        stroke="#D0D0D0" stroke-width="2" stroke-linecap="round" stroke-linejoin="round" />
      <path
        d="M502.03 585.253L485.975 571.945L468.379 551.068L436.421 519.97L420.765 504.544L407.414 491.099L396.316 480.75L391.179 473.182L386.527 467.867L368.082 438.555L356.151 419.217L345.512 401.479L334.669 383.298L324.167 358.058L322.832 323.355L321.522 294.714L320.476 268.437L318.299 249.296L315.841 238.564L299.165 206.505L296.197 201.249"
        stroke="#D0D0D0" stroke-width="2" stroke-linecap="round" stroke-linejoin="round" />
      <path
        d="M483.415 598.782L456.329 572.888L428.742 545.294L409.948 526.619L394.088 510.734L384.963 501.687L364.085 485.079L356.576 474.738C340.631 448.053 328.946 419.073 312.712 392.558L303.698 376.562L302.32 360.371L301.512 323.218L300.815 296.5L299.794 272.689L297.252 247.373L293.705 218.656L280.456 191.64L276.008 180.168L275.617 161.316L275.728 140.575L275.081 125.974L295.559 103.312L307.482 88.4471L314.83 79.8242L328.963 66.1501L355.199 42.2207L360.454 39.2529L364.255 39.7121L370.685 48.8962"
        stroke="#D0D0D0" stroke-width="2" stroke-linecap="round" stroke-linejoin="round" />
      <path
        d="M474.111 605.543L453.863 586.716L428.878 561.791L410.084 543.126L393.79 526.892L374.877 508.558L358.047 498.362C326.965 479.211 311.385 425.723 290.754 395.229L289.207 387.66L291.639 378.544L291.426 330.09L290.686 301.466L289.93 276.431L288.781 260.129L284.317 225.213L282.063 208.316L271.697 182.184L271.11 152.106L266.041 118.295L266.297 110.455L281.621 94.5786L305.815 71.5929L317.738 60.317L335.631 44.6446L348.956 31.6168L358.354 22.0501L360.114 22.892L366.56 35.1032"
        stroke="#D0D0D0" stroke-width="2" stroke-linecap="round" stroke-linejoin="round" />
      <path
        d="M437.152 274.381L428.785 272.987L418.146 265.461L415.646 263.02L415.816 261.566L419.609 258.445L432.603 255.503L441.898 255.92L444.874 257.586L446.481 259.882L446.158 266.371L441.022 272.595L437.152 274.381Z"
        stroke="#D0D0D0" stroke-width="2" stroke-linecap="round" stroke-linejoin="round" />
      <path
        d="M436.634 279.858L430.162 278.973L419.592 272.8L407.091 264.203L404.182 260.291L402.864 256.209L405.194 249.899L408.426 247.306L422.16 242.374L438.318 238.53L450.258 236.897L453.166 237.22L454.476 238.275L451.414 263.403L445.742 275.666L443.658 277.732L436.634 279.858Z"
        stroke="#D0D0D0" stroke-width="2" stroke-linecap="round" stroke-linejoin="round" />
      <path
        d="M436.013 285.113L429.099 283.872L418.741 278.149L405.032 268.735L400.61 263.318L391.281 236.429L392.701 234.125L398.05 231.94L435.341 226.659L451.677 224.388L457.74 224.354L460.003 230.485L461.389 239.508L455.717 265.563L448.709 280.921L445.282 283.055L436.013 285.113Z"
        stroke="#D0D0D0" stroke-width="2" stroke-linecap="round" stroke-linejoin="round" />
      <path
        d="M435.503 290.59L429.125 289.927L408.451 277.366L398.731 269.424L392.71 254.534L384.189 237.212L377.309 224.652L376.008 220.009L376.11 216.65L386.604 214.855L413.231 213.376L439.024 210.068L455.658 205.45L463.618 208.962L474.171 215.697L477.386 220.289L476.909 224.643L469.213 233.708L461.406 262.944L451.678 286.176L435.503 290.59Z"
        stroke="#D0D0D0" stroke-width="2" stroke-linecap="round" stroke-linejoin="round" />
      <path
        d="M334.78 177.167L337.527 178.935L334.202 181.291L329.227 182.481L323.784 180.84L319.796 175.781L317.16 170.644L317.134 168.17L327.211 172.09L334.78 177.167Z"
        stroke="#D0D0D0" stroke-width="2" stroke-linecap="round" stroke-linejoin="round" />
      <path d="M923.094 278.812L940.961 270.869" stroke="#D0D0D0" stroke-width="2" stroke-linecap="round"
        stroke-linejoin="round" />
      <path d="M912.183 286.865L916.265 281.95L923.094 278.812" stroke="#D0D0D0" stroke-width="2" stroke-linecap="round"
        stroke-linejoin="round" />
      <path
        d="M854.27 328.933L869.203 304.417L881.636 284.629L889.078 269.619L893.194 263.59L917.473 255.189L930.416 250.333"
        stroke="#D0D0D0" stroke-width="2" stroke-linecap="round" stroke-linejoin="round" />
      <path
        d="M818.085 355.235L815.398 337.981L814.275 331.331L821.657 318.006L835.094 298.031L852.34 274.926L860.699 266.116L867.503 260.504L888.397 252.553L910.083 248.105L927.499 243.403L935.867 244.797"
        stroke="#D0D0D0" stroke-width="2" stroke-linecap="round" stroke-linejoin="round" />
      <path
        d="M796.603 370.908L785.48 350.915L781.313 334.069L780.59 328.882L781.9 316.144L783.635 314.519L796.068 315.149L806.196 303.592L818.918 285.054L830.892 265.478L836.615 258.156L842.245 254.185L847.339 252.672L851.387 252.468L882.019 245.282L901.094 241.753L922.09 237.62L925.305 238.623"
        stroke="#D0D0D0" stroke-width="2" stroke-linecap="round" stroke-linejoin="round" />
      <path
        d="M784.426 379.819L774.918 354.946L770.725 345.838L767.885 336.663L766.567 328.992L766.686 318.456L768.2 309.757L770.207 306.9L786.203 294.306L792.504 286.993L804.623 255.767L807.046 250.231L819.871 245.715L838.656 243.972L854.482 243.598L889.162 236.208L908.909 232.364L916.562 231.599L929.522 236.404"
        stroke="#D0D0D0" stroke-width="2" stroke-linecap="round" stroke-linejoin="round" />
      <path
        d="M9.02166 498.277L12.9419 488.2L17.6532 470.852L21.6586 451.362L24.431 445.392L52.4011 423.427L78.4152 403.188L83.6367 397.754L93.9691 369.828L100.373 359.164L101.708 332.063L113.027 311.688L116.964 290.837L118.725 281.474"
        stroke="#D0D0D0" stroke-width="2" stroke-linecap="round" stroke-linejoin="round" />
      <path
        d="M1.56373 572.055L-8.18194 568.254L-14.3644 554.818L-13.7437 539.367L-10.6483 520.284L-1.41271 498.379L6.51318 475.427L11.3179 458.87L14.9492 443.963L21.2932 424.762L25.1882 415.246L32.187 407.066L42.579 397.873L49.1442 385.747L62.198 370.925L71.2038 359.325L74.9287 351.825L76.6465 336.961L78.7555 330.753L89.6153 314.171L98.9613 302.699L108.146 286.066L117.534 269.883L121.863 257.689L122.926 249.202L122.866 247.289"
        stroke="#D0D0D0" stroke-width="2" stroke-linecap="round" stroke-linejoin="round" />
      <path
        d="M52.4947 609.608L38.4291 600.628L21.88 592.235L6.95542 585.576L-13.7777 578.28L-31.2366 570.312L-32.1379 563.552L-29.8759 545.685L-26.9846 529.18L-18.625 513.754C-4.46566 481.873 4.51459 446.149 15.5189 412.806L24.4567 383.043L41.9242 359.836L48.5404 349.623L51.8316 338.177L57.0786 328.593L66.9517 314.672L79.0871 300.267L86.9278 290.318L96.8948 273.6L117.568 248.369L120.536 243.42L120.715 231.2L119.949 227.135"
        stroke="#D0D0D0" stroke-width="2" stroke-linecap="round" stroke-linejoin="round" />
      <path
        d="M57.2397 628.937L39.1089 614.106L20.0428 603.834L5.90908 597.09L-17.5964 588.586L-28.5581 580.933L-41.4079 569.189L-45.2943 564.351L-46.3318 558.483L-43.8061 542.981L-32.7337 523.269L-22.5288 499.263L-13.4209 471.073L-7.87625 452.526L4.20826 418.826L11.5983 395.288L15.5611 380.508L17.0578 362.157L18.6482 354.81L26.9906 339.384L37.0084 324.571L49.0419 309.936L60.2502 296.5L71.5607 283.302L80.3115 269.347L91.5369 255.358L102.856 242.152L114.141 229.516L117.423 225.247L117.551 221.327L113.996 209.991L113.911 209.2"
        stroke="#D0D0D0" stroke-width="2" stroke-linecap="round" stroke-linejoin="round" />
      <path
        d="M99.1739 691.32L71.6971 670.571L58.2861 658.802L43.2254 645.868L31.2177 635.935L15.5785 627.125L-4.50807 617.049L-12.5531 612.754L-18.2253 611.223L-39.3749 589.224L-51.6039 575.814L-60.3972 563.296L-63.9434 554.997L-64.0368 551.179L-53.9596 531.093L-48.1852 515.471L-40.1915 487.247L-35.2335 469.236L-29.9695 452.476L-19.4158 428.036L-10.2994 406.462L-3.69171 386.044L0.203028 369.904L1.2322 348.747L2.96686 333.321L6.70028 318.644L11.182 304.995L16.0463 296.968L30.1376 280.828L40.8357 269.288L59.1961 246.226L72.4541 231.854L88.2886 214.09L98.3916 200.059L100.135 194.846L97.1413 183.536"
        stroke="#D0D0D0" stroke-width="2" stroke-linecap="round" stroke-linejoin="round" />
      <path
        d="M89.3429 696.941L63.516 677.366L51.185 666.762L36.1156 654.38L24.9753 645.154L5.46696 634.532L-20.5982 618.656L-29.5446 611.19L-45.6258 591.818L-58.3734 576.715L-63.714 568.688L-67.1667 557.582L-68.2468 546.221L-63.4844 530.787L-55.3204 500.547L-48.9678 477.766L-41.8415 455.452L-34.766 437.849L-22.248 411.683L-14.0246 389.965L-8.44584 370.304L-6.05614 338.304L-3.26676 325.158L2.72867 306.398L8.9365 284.51L12.5084 274.867L26.1743 261.405L38.5223 247.459L57.3929 226.089L75.5577 205.595L88.7646 189.319L91.5029 184.472L90.6015 174.123"
        stroke="#D0D0D0" stroke-width="2" stroke-linecap="round" stroke-linejoin="round" />
      <path
        d="M100.798 717.052L85.8816 706.805L60.0377 687.791L47.0264 677.501L29.2274 662.79L18.7332 654.371L1.01933 644.031L-8.0632 636.896L-32.3508 618.273L-49.8097 596.503L-62.5488 581.392L-67.1412 574.402L-71.6314 553.84L-74.9905 539.936L-74.3271 529.978L-66.8435 500.054C-57.693 464.159 -46.995 438.062 -29.9953 405.594L-21.3295 384.233L-17.307 370.797L-15.6488 361.205L-14.5858 342.513L-12.9786 331.016L-6.57498 310.14L-0.749582 289.807L1.79314 270.155L2.58396 252.688L4.36139 246.353L16.4883 235.536L35.7585 215.637L52.0269 198.222L60.3693 189.973L83.1604 172.319L85.2608 169.7L86.3153 154.589"
        stroke="#D0D0D0" stroke-width="2" stroke-linecap="round" stroke-linejoin="round" />
      <path
        d="M22.101 671.302L9.83817 662.042L-12.7062 644.822L-26.6954 633.597L-41.0673 620.339L-48.6446 608.655L-66.5202 585.976L-70.279 580.805L-77.0397 557.709L-82.3122 537.232L-83.2477 528.006L-82.3718 518.507L-75.8407 490.121L-70.0578 470.903L-63.0079 450.834L-54.0871 431.837L-45.2174 414.515L-37.6741 399.735L-32.1211 387.804L-26.5509 371.724L-23.8382 360.822L-22.7835 342.131L-21.3293 332.079L-15.9123 313.864L-10.8439 296.083L-8.49672 279.007L-7.3571 254.483L-6.12404 237.356L-4.95037 225.51L-2.40765 219.651L9.9233 206.258L27.7138 190.356L57.0785 170.228L72.6751 159.742L80.4903 153.943L82.4972 151.094L83.5687 145.635L86.9448 138.568"
        stroke="#D0D0D0" stroke-width="2" stroke-linecap="round" stroke-linejoin="round" />
    </g>
  </g>
  <defs>
    <clipPath id="clip0_5214_12501">
      <rect width="2152" height="2797" fill="white" transform="matrix(1.19249e-08 -1 -1 -1.19249e-08 2563 2152)" />
    </clipPath>
  </defs>
</svg>
