<svg width="346" height="257" viewBox="0 0 346 257" fill="none" xmlns="http://www.w3.org/2000/svg">
<path fill-rule="evenodd" clip-rule="evenodd" d="M84.6365 206.636C84.9215 206.92 85.064 207.262 85.064 207.663C85.064 208.064 84.9188 208.422 84.6257 208.705C84.3407 208.978 83.9992 209.114 83.6012 209.114C83.2032 209.114 82.8456 208.975 82.5632 208.695C82.2809 208.414 82.1411 208.072 82.1411 207.663C82.1411 207.254 82.2916 206.885 82.5955 206.604C82.8832 206.342 83.2167 206.211 83.6012 206.211C84.0045 206.211 84.3487 206.353 84.6365 206.636Z" fill="#009CDE"/>
<path fill-rule="evenodd" clip-rule="evenodd" d="M129.594 43.7739C93.6823 59.0603 83.6657 85.4118 83.6469 85.4813L83.2409 86.5507L84.2412 85.9652C87.1265 84.2756 92.3674 81.4392 95.9626 79.9661C91.7677 88.8471 85.6421 105.962 83.1709 118.102C82.9531 119.177 82.5955 120.08 82.41 120.936C82.2889 121.494 82.1841 121.837 81.9609 122.259C81.7001 122.764 81.2295 123.16 80.6675 123.604C80.2184 123.975 77.7687 125.173 77.7633 125.176C77.7526 125.186 77.2094 125.467 76.6232 125.745C76.3194 125.889 76.0155 126.031 75.7654 126.135C75.752 126.141 75.7331 126.146 75.7251 126.151L75.5906 123.935C74.7597 103.091 74.4801 90.002 74.4854 80.2254C74.4854 69.7511 74.7974 63.0677 75.0958 54.6519C77.4111 56.5366 84.4859 62.3619 84.4966 62.3619L85.2469 62.9902L85.1662 62.0117C83.7545 45.9313 78.9868 30.5541 75.752 21.7773C74.6844 18.8981 73.6088 16.3798 72.5735 14.1983C69.0725 6.79573 66.0177 0.970437 65.8806 0.700425L65.5176 0L65.1492 0.700425C65.0094 0.970437 61.9573 6.79573 58.4482 14.1983C57.421 16.3798 56.3454 18.8981 55.2778 21.7773C52.0483 30.5541 47.2807 45.9313 45.8636 62.0117L45.7749 62.9821L46.5332 62.3619C46.5332 62.3619 53.616 56.5313 55.9393 54.6519C56.2324 63.0677 56.5497 69.7511 56.5497 80.2254C56.5497 90.002 56.2755 103.091 55.4392 123.949L55.3047 126.151C54.576 125.852 53.2799 125.186 53.2799 125.186C53.2665 125.176 50.8168 123.975 50.3623 123.604C49.7976 123.16 49.3297 122.764 49.0662 122.259C48.8511 121.837 48.7462 121.494 48.6252 120.941C48.4397 120.08 48.0713 119.177 47.8589 118.102C45.3823 105.962 39.2675 88.8471 35.0726 79.9661C38.6624 81.4392 43.9087 84.2756 46.7913 85.9652L47.7943 86.5507L47.3829 85.4813C47.3641 85.4118 37.3448 59.0603 1.43309 43.7739L0.276817 43.2847L0.927558 44.3647C0.927558 44.3647 5.33753 51.6925 10.3122 61.3059C15.303 70.9087 20.837 82.7839 23.0689 91.7905C25.1475 100.147 31.5366 127.234 31.5366 150.18C31.5366 152.484 31.4747 154.754 31.3322 156.951L32.1066 157.165C32.1066 157.165 33.3248 154.81 34.8656 152.067C36.167 149.741 37.7186 147.129 38.9152 145.472L46.5332 205.275L47.3479 205.257L50.2252 160.483L65.1062 257H65.9209L80.8046 160.478L83.6765 205.257L84.4966 205.275L92.12 145.472C93.3112 147.129 94.8601 149.741 96.1616 152.067C97.705 154.81 98.9205 157.157 98.9205 157.165L99.6976 156.951C99.5551 154.754 99.4905 152.484 99.4905 150.18C99.4905 127.234 105.882 100.142 107.958 91.7905C110.193 82.7839 115.729 70.9087 120.71 61.3059C125.692 51.6925 130.102 44.3754 130.105 44.3647L130.758 43.2793L129.594 43.7739ZM65.5176 240.973L58.666 179.544H72.3611L65.5176 240.973ZM73.1571 172.521L72.6515 177.496H58.3756L57.87 172.521L57.8485 172.305H73.184L73.1571 172.521ZM59.4861 170.265V166.429H71.5437V170.265H59.4861ZM73.2001 164.391H57.8324V159.144H73.2001V164.391ZM122.162 52.0988C104.019 79.656 99.2808 110.181 95.6722 140.013L95.57 140.882L91.5445 137.39L73.1974 146.696L73.1571 156.984H57.8727L57.8324 146.696L39.4907 137.39L35.4545 140.882L35.355 140.013C31.7409 110.181 27.0083 79.656 8.86552 52.0988L8.59393 51.6844L9.04837 51.9037C10.4171 52.564 11.7051 53.219 12.9501 53.8766C24.0557 59.7393 30.6142 65.7544 39.1357 77.4719L39.1599 77.4932L41.1767 79.8752C38.9663 78.8487 35.9062 77.3649 32.8999 76.2742C31.8431 75.8892 29.786 75.3144 29.786 75.3144C30.2109 76.0149 31.0499 77.4505 31.3456 77.9878C37.7858 89.8122 42.1017 111.001 44.2314 121.457C44.4788 122.652 44.6804 123.7 44.8687 124.547C45.0004 125.165 45.2183 125.534 45.5463 125.978C45.9443 126.496 46.4848 126.79 46.6972 126.916L52.2366 129.426L54.8691 130.632C55.0977 130.731 55.4446 130.854 55.8856 130.87H55.9205C56.3346 130.87 56.9477 130.752 57.4694 130.204C57.5151 130.156 57.5366 130.116 57.5796 130.063C58.061 129.517 58.2008 129.012 58.2546 128.306C58.3379 127.429 58.4078 126.502 58.4751 125.55C58.6821 122.754 58.8435 119.663 58.9779 116.354C59.6959 98.8429 59.5238 75.5524 59.4055 61.3113C59.3651 56.5954 59.3329 52.5239 59.3329 49.4415V49.3827L59.3786 49.3452C60.3251 48.3641 61.8121 46.8724 62.237 46.4339C61.6454 46.6558 60.4542 47.2146 58.9161 48.1422C58.1121 48.6314 57.2059 49.2196 56.2324 49.904C54.9014 50.853 53.4439 52.0052 51.9569 53.35C51.6046 53.6708 51.247 54.0103 50.8921 54.3471L50.5748 54.6572L50.6635 54.2215C52.5001 44.8673 53.8312 37.7642 55.8372 31.0112C56.6869 28.156 57.6522 25.357 58.8327 22.4804C60.5133 18.3715 62.6135 12.466 65.4073 7.61378L65.5176 7.42932L65.6198 7.61378C68.4217 12.466 70.5138 18.3715 72.2025 22.4804C73.3722 25.357 74.3483 28.156 75.19 31.0112C77.1906 37.7642 78.5324 44.8673 80.3717 54.2215L80.4524 54.6572L80.1377 54.3471C79.7828 54.0103 79.4305 53.6708 79.0702 53.35C77.5832 52.0052 76.1284 50.853 74.7974 49.904C73.8213 49.2196 72.9231 48.6314 72.1137 48.1422C70.5702 47.2146 69.3871 46.6558 68.7928 46.4339C69.223 46.8724 70.7047 48.3641 71.6566 49.3452L71.6942 49.3827V49.4415C71.705 52.5239 71.6701 56.5954 71.6297 61.3113C71.5087 75.5524 71.3393 98.8429 72.0519 116.354C72.1917 119.663 72.3504 122.754 72.5547 125.55C72.6273 126.502 72.6973 127.429 72.7725 128.306C72.8263 129.012 72.9742 129.517 73.4502 130.063C73.4932 130.116 73.5255 130.156 73.5604 130.204C74.0821 130.752 74.6925 130.87 75.1093 130.87H75.1469C75.5826 130.854 75.9321 130.731 76.1553 130.632L78.7932 129.426L84.3245 126.916C84.5504 126.79 85.0909 126.496 85.4754 125.978C85.8169 125.534 86.0347 125.165 86.1665 124.547C86.344 123.7 86.5564 122.652 86.7984 121.457C88.9281 111.001 93.2494 89.8122 99.6842 77.9878C99.9853 77.4505 100.822 76.0149 101.244 75.3144C101.244 75.3144 99.1921 75.8892 98.1272 76.2742C95.1263 77.3649 92.0662 78.8487 89.8585 79.8752L91.8753 77.4932L91.8941 77.4719C100.418 65.7544 106.979 59.7393 118.077 53.8766C119.327 53.219 120.615 52.564 121.981 51.9037L122.436 51.6844L122.162 52.0988Z" fill="#009CDE"/>
<path fill-rule="evenodd" clip-rule="evenodd" d="M260.49 85.4786H255.149C252.103 80.9339 245.73 77.266 239.435 75.0097C235.138 73.4752 230.23 72.5956 224.831 72.5956C218.673 72.5956 213.33 73.4805 208.756 75.0097C205.774 76.0095 203.12 77.2794 200.81 78.7765C196.572 81.5167 193.488 84.9921 191.573 88.823C190.731 90.4992 190.129 92.2369 189.744 94.0228C189.411 95.5332 189.236 97.0731 189.236 98.6129C189.236 101.211 189.572 103.81 190.247 106.358C190.6 107.662 191.038 108.962 191.573 110.234C193.439 114.667 196.47 118.877 200.81 122.636C201.087 122.874 201.358 123.117 201.643 123.35C203.717 125.053 206.067 126.662 208.721 128.138C224.011 136.733 230.779 139.762 230.779 147.747C230.779 149.276 230.424 150.527 229.698 151.506C228.469 153.169 226.159 154.037 222.666 154.037C219.173 154.037 216.874 153.072 215.403 151.506C214.411 150.458 213.865 149.134 213.865 147.627V139.275H190.142V139.28C190.237 148.145 188.456 155.203 184.471 161.491H190.142C192.245 164.79 196.776 167.522 200.807 169.588C202.488 170.449 204.33 171.201 206.325 171.837C211.324 173.411 217.256 174.259 224.011 174.259C229.873 174.259 235.019 173.366 239.462 171.837C245.684 169.69 250.478 166.265 253.713 162.138C256.238 158.922 257.801 155.291 258.384 151.508C258.548 150.423 258.667 149.332 258.667 148.231C258.667 142.737 256.935 137.225 253.713 132.191C251.678 129.007 249.051 126.015 245.851 123.35C243.089 121.043 239.9 118.987 236.332 117.252C226.377 112.41 221.284 110.034 218.915 106.358C217.605 104.337 217.113 101.936 217.113 98.4926C217.113 96.4662 218.261 94.9798 219.915 94.0228C221.319 93.2234 223.083 92.8037 224.828 92.8037C226.573 92.8037 228.033 93.2501 229.233 94.0228C230.744 94.9905 231.731 96.4876 231.731 98.375V106.358H255.147C255.061 98.0301 256.733 91.3921 260.487 85.4786H260.49Z" fill="#8C1D40"/>
<path fill-rule="evenodd" clip-rule="evenodd" d="M327.954 75.4989H302.842V148.846C302.842 151.377 300.591 152.944 297.515 152.944C294.67 152.944 292.298 151.377 292.298 148.846V75.4989H260.49C264.456 78.7685 266.217 82.4337 266.129 87.0372V150.407C266.129 163.536 279.63 174.256 297.517 174.256C315.405 174.256 327.957 163.536 327.957 150.407V86.0107H327.976C328.156 81.8856 329.923 78.5172 333.585 75.4962H327.957L327.954 75.4989Z" fill="#8C1D40"/>
<path fill-rule="evenodd" clip-rule="evenodd" d="M147.511 138.166L151.421 107.847L154.734 138.166H147.508H147.511ZM173.051 75.4989H131.334C133.533 77.3008 135.034 79.2416 135.937 81.3777L120.15 171.353H142.778L144.671 158.769H156.869L158.175 171.353H184.471L168.456 81.3563C169.362 79.2176 170.86 77.2981 173.051 75.4989Z" fill="#8C1D40"/>
<path fill-rule="evenodd" clip-rule="evenodd" d="M340.254 79.6587H340.722C341.268 79.6587 341.711 79.4715 341.711 79.0224C341.711 78.6241 341.423 78.3621 340.8 78.3621C340.539 78.3621 340.356 78.3861 340.254 78.4129V79.6587ZM340.227 82.0941H339.237V77.7526C339.627 77.6991 340.176 77.6189 340.878 77.6189C341.687 77.6189 342.047 77.7526 342.335 77.9638C342.596 78.1482 342.779 78.4664 342.779 78.8914C342.779 79.4208 342.386 79.7629 341.891 79.9233V79.9768C342.311 80.1105 342.515 80.4527 342.647 81.0355C342.779 81.6985 342.881 81.9364 342.959 82.0968H341.918C341.789 81.9364 341.711 81.5675 341.579 81.0355C341.504 80.5863 341.243 80.3751 340.695 80.3751H340.227V82.0968V82.0941ZM337.597 79.8431C337.597 81.776 339.03 83.3132 340.929 83.3132C342.779 83.3373 344.182 81.776 344.182 79.8699C344.182 77.9638 342.779 76.3731 340.878 76.3731C338.976 76.3731 337.597 77.937 337.597 79.8431ZM345.277 79.8431C345.277 82.2786 343.351 84.2114 340.904 84.2114C338.457 84.2114 336.505 82.2786 336.505 79.8431C336.505 77.4077 338.457 75.4989 340.929 75.4989C343.4 75.4989 345.277 77.405 345.277 79.8431Z" fill="#8C1D40"/>
<path fill-rule="evenodd" clip-rule="evenodd" d="M129.594 43.7739C93.6823 59.0603 83.6657 85.4118 83.6469 85.4813L83.2409 86.5507L84.2412 85.9652C87.1265 84.2756 92.3674 81.4392 95.9626 79.9661C91.7677 88.8471 85.6421 105.962 83.1709 118.102C82.9531 119.177 82.5955 120.08 82.41 120.936C82.2889 121.494 82.1841 121.837 81.9609 122.259C81.7001 122.764 81.2295 123.16 80.6675 123.604C80.2184 123.975 77.7687 125.173 77.7633 125.176C77.7526 125.186 77.2094 125.467 76.6232 125.745C76.3194 125.889 76.0155 126.031 75.7654 126.135C75.752 126.141 75.7331 126.146 75.7251 126.151L75.5906 123.935C74.7597 103.091 74.4801 90.002 74.4854 80.2254C74.4854 69.7511 74.7974 63.0677 75.0958 54.6519C77.4111 56.5366 84.4859 62.3619 84.4966 62.3619L85.2469 62.9902L85.1662 62.0117C83.7545 45.9313 78.9868 30.5541 75.752 21.7773C74.6844 18.8981 73.6088 16.3798 72.5735 14.1983C69.0725 6.79573 66.0177 0.970437 65.8806 0.700425L65.5176 0L65.1492 0.700425C65.0094 0.970437 61.9573 6.79573 58.4482 14.1983C57.421 16.3798 56.3454 18.8981 55.2778 21.7773C52.0483 30.5541 47.2807 45.9313 45.8636 62.0117L45.7749 62.9821L46.5332 62.3619C46.5332 62.3619 53.616 56.5313 55.9393 54.6519C56.2324 63.0677 56.5497 69.7511 56.5497 80.2254C56.5497 90.002 56.2755 103.091 55.4392 123.949L55.3047 126.151C54.576 125.852 53.2799 125.186 53.2799 125.186C53.2665 125.176 50.8168 123.975 50.3623 123.604C49.7976 123.16 49.3297 122.764 49.0662 122.259C48.8511 121.837 48.7462 121.494 48.6252 120.941C48.4397 120.08 48.0713 119.177 47.8589 118.102C45.3823 105.962 39.2675 88.8471 35.0726 79.9661C38.6624 81.4392 43.9087 84.2756 46.7913 85.9652L47.7943 86.5507L47.3829 85.4813C47.3641 85.4118 37.3448 59.0603 1.43309 43.7739L0.276817 43.2847L0.927558 44.3647C0.927558 44.3647 5.33753 51.6925 10.3122 61.3059C15.303 70.9087 20.837 82.7839 23.0689 91.7905C25.1475 100.147 31.5366 127.234 31.5366 150.18C31.5366 152.484 31.4747 154.754 31.3322 156.951L32.1066 157.165C32.1066 157.165 33.3248 154.81 34.8656 152.067C36.167 149.741 37.7186 147.129 38.9152 145.472L46.5332 205.275L47.3479 205.257L50.2252 160.483L65.1062 257H65.9209L80.8046 160.478L83.6765 205.257L84.4966 205.275L92.12 145.472C93.3112 147.129 94.8601 149.741 96.1616 152.067C97.705 154.81 98.9205 157.157 98.9205 157.165L99.6976 156.951C99.5551 154.754 99.4905 152.484 99.4905 150.18C99.4905 127.234 105.882 100.142 107.958 91.7905C110.193 82.7839 115.729 70.9087 120.71 61.3059C125.692 51.6925 130.102 44.3754 130.105 44.3647L130.758 43.2793L129.594 43.7739ZM65.5176 240.973L58.666 179.544H72.3611L65.5176 240.973ZM73.1571 172.521L72.6515 177.496H58.3756L57.87 172.521L57.8485 172.305H73.184L73.1571 172.521ZM59.4861 170.265V166.429H71.5437V170.265H59.4861ZM73.2001 164.391H57.8324V159.144H73.2001V164.391ZM122.162 52.0988C104.019 79.656 99.2808 110.181 95.6722 140.013L95.57 140.882L91.5445 137.39L73.1974 146.696L73.1571 156.984H57.8727L57.8324 146.696L39.4907 137.39L35.4545 140.882L35.355 140.013C31.7409 110.181 27.0083 79.656 8.86552 52.0988L8.59393 51.6844L9.04837 51.9037C10.4171 52.564 11.7051 53.219 12.9501 53.8766C24.0557 59.7393 30.6142 65.7544 39.1357 77.4719L39.1599 77.4932L41.1767 79.8752C38.9663 78.8487 35.9062 77.3649 32.8999 76.2742C31.8431 75.8892 29.786 75.3144 29.786 75.3144C30.2109 76.0149 31.0499 77.4505 31.3456 77.9878C37.7858 89.8122 42.1017 111.001 44.2314 121.457C44.4788 122.652 44.6804 123.7 44.8687 124.547C45.0004 125.165 45.2183 125.534 45.5463 125.978C45.9443 126.496 46.4848 126.79 46.6972 126.916L52.2366 129.426L54.8691 130.632C55.0977 130.731 55.4446 130.854 55.8856 130.87H55.9205C56.3346 130.87 56.9477 130.752 57.4694 130.204C57.5151 130.156 57.5366 130.116 57.5796 130.063C58.061 129.517 58.2008 129.012 58.2546 128.306C58.3379 127.429 58.4078 126.502 58.4751 125.55C58.6821 122.754 58.8435 119.663 58.9779 116.354C59.6959 98.8429 59.5238 75.5524 59.4055 61.3113C59.3651 56.5954 59.3329 52.5239 59.3329 49.4415V49.3827L59.3786 49.3452C60.3251 48.3641 61.8121 46.8724 62.237 46.4339C61.6454 46.6558 60.4542 47.2146 58.9161 48.1422C58.1121 48.6314 57.2059 49.2196 56.2324 49.904C54.9014 50.853 53.4439 52.0052 51.9569 53.35C51.6046 53.6708 51.247 54.0103 50.8921 54.3471L50.5748 54.6572L50.6635 54.2215C52.5001 44.8673 53.8312 37.7642 55.8372 31.0112C56.6869 28.156 57.6522 25.357 58.8327 22.4804C60.5133 18.3715 62.6135 12.466 65.4073 7.61378L65.5176 7.42932L65.6198 7.61378C68.4217 12.466 70.5138 18.3715 72.2025 22.4804C73.3722 25.357 74.3483 28.156 75.19 31.0112C77.1906 37.7642 78.5324 44.8673 80.3717 54.2215L80.4524 54.6572L80.1377 54.3471C79.7828 54.0103 79.4305 53.6708 79.0702 53.35C77.5832 52.0052 76.1284 50.853 74.7974 49.904C73.8213 49.2196 72.9231 48.6314 72.1137 48.1422C70.5702 47.2146 69.3871 46.6558 68.7928 46.4339C69.223 46.8724 70.7047 48.3641 71.6566 49.3452L71.6942 49.3827V49.4415C71.705 52.5239 71.6701 56.5954 71.6297 61.3113C71.5087 75.5524 71.3393 98.8429 72.0519 116.354C72.1917 119.663 72.3504 122.754 72.5547 125.55C72.6273 126.502 72.6973 127.429 72.7725 128.306C72.8263 129.012 72.9742 129.517 73.4502 130.063C73.4932 130.116 73.5255 130.156 73.5604 130.204C74.0821 130.752 74.6925 130.87 75.1093 130.87H75.1469C75.5826 130.854 75.9321 130.731 76.1553 130.632L78.7932 129.426L84.3245 126.916C84.5504 126.79 85.0909 126.496 85.4754 125.978C85.8169 125.534 86.0347 125.165 86.1665 124.547C86.344 123.7 86.5564 122.652 86.7984 121.457C88.9281 111.001 93.2494 89.8122 99.6842 77.9878C99.9853 77.4505 100.822 76.0149 101.244 75.3144C101.244 75.3144 99.1921 75.8892 98.1272 76.2742C95.1263 77.3649 92.0662 78.8487 89.8585 79.8752L91.8753 77.4932L91.8941 77.4719C100.418 65.7544 106.979 59.7393 118.077 53.8766C119.327 53.219 120.615 52.564 121.981 51.9037L122.436 51.6844L122.162 52.0988Z" fill="#8C1D40"/>
<path fill-rule="evenodd" clip-rule="evenodd" d="M122.436 51.6844L122.162 52.0988C104.019 79.656 99.2808 110.181 95.6721 140.013L95.57 140.882L91.5445 137.39L73.1974 146.696L73.1571 156.984H57.8727L57.8324 146.696L39.4907 137.39L35.4545 140.882L35.355 140.013C31.7409 110.181 27.0083 79.656 8.86552 52.0988L8.59393 51.6844L9.04837 51.9037C10.4171 52.564 11.7051 53.219 12.9501 53.8766C24.0557 59.7393 30.6142 65.7544 39.1357 77.4719L39.1599 77.4932L41.1767 79.8752C38.9663 78.8486 35.9062 77.3649 32.8999 76.2742C31.8431 75.8892 29.786 75.3144 29.786 75.3144C30.2109 76.0149 31.0499 77.4505 31.3456 77.9878C37.7858 89.8122 42.1017 111.001 44.2314 121.457C44.4788 122.652 44.6804 123.7 44.8687 124.547C45.0004 125.165 45.2182 125.534 45.5463 125.978C45.9443 126.496 46.4848 126.79 46.6972 126.916L52.2366 129.426L54.8691 130.632C55.0977 130.731 55.4445 130.854 55.8855 130.87H55.9205C56.3346 130.87 56.9477 130.752 57.4694 130.204C57.5151 130.156 57.5366 130.116 57.5796 130.063C58.061 129.517 58.2008 129.012 58.2546 128.306C58.3379 127.429 58.4078 126.502 58.4751 125.55C58.6821 122.754 58.8435 119.663 58.9779 116.353C59.6959 98.8429 59.5238 75.5524 59.4055 61.3113C59.3651 56.5954 59.3329 52.5239 59.3329 49.4415V49.3827L59.3786 49.3452C60.3251 48.3641 61.8121 46.8724 62.237 46.4339C61.6454 46.6558 60.4542 47.2146 58.9161 48.1422C58.1121 48.6314 57.2059 49.2196 56.2324 49.904C54.9014 50.853 53.4439 52.0052 51.9569 53.35C51.6046 53.6708 51.247 54.0103 50.8921 54.3471L50.5748 54.6572L50.6635 54.2215C52.5001 44.8673 53.8311 37.7642 55.8371 31.0112C56.6869 28.156 57.6522 25.357 58.8327 22.4804C60.5133 18.3715 62.6135 12.466 65.4073 7.61378L65.5176 7.42932L65.6198 7.61378C68.4217 12.466 70.5138 18.3715 72.2025 22.4804C73.3722 25.357 74.3483 28.156 75.19 31.0112C77.1906 37.7642 78.5324 44.8673 80.3717 54.2215L80.4523 54.6572L80.1377 54.3471C79.7828 54.0103 79.4305 53.6708 79.0702 53.35C77.5832 52.0052 76.1284 50.853 74.7974 49.904C73.8213 49.2196 72.9231 48.6314 72.1137 48.1422C70.5702 47.2146 69.3871 46.6558 68.7928 46.4339C69.223 46.8724 70.7047 48.3641 71.6566 49.3452L71.6942 49.3827V49.4415C71.705 52.5239 71.67 56.5954 71.6297 61.3113C71.5087 75.5524 71.3393 98.8429 72.0519 116.353C72.1917 119.663 72.3504 122.754 72.5547 125.55C72.6273 126.502 72.6972 127.429 72.7725 128.306C72.8263 129.012 72.9742 129.517 73.4502 130.063C73.4932 130.116 73.5255 130.156 73.5604 130.204C74.0821 130.752 74.6925 130.87 75.1093 130.87H75.1469C75.5826 130.854 75.9321 130.731 76.1553 130.632L78.7932 129.426L84.3245 126.916C84.5504 126.79 85.0909 126.496 85.4754 125.978C85.8169 125.534 86.0347 125.165 86.1665 124.547C86.344 123.7 86.5564 122.652 86.7984 121.457C88.9281 111.001 93.2493 89.8122 99.6841 77.9878C99.9853 77.4505 100.822 76.0149 101.244 75.3144C101.244 75.3144 99.1921 75.8892 98.1272 76.2742C95.1263 77.3649 92.0662 78.8486 89.8585 79.8752L91.8753 77.4932L91.8941 77.4719C100.418 65.7544 106.979 59.7393 118.077 53.8766C119.327 53.219 120.615 52.564 121.981 51.9037L122.436 51.6844Z" fill="#FFC627"/>
<path d="M73.2001 159.144H57.8324V164.391H73.2001V159.144Z" fill="#FFC627"/>
<path d="M71.5437 166.429H59.4861V170.265H71.5437V166.429Z" fill="#FFC627"/>
<path fill-rule="evenodd" clip-rule="evenodd" d="M73.184 172.305L73.1571 172.521L72.6515 177.496H58.3756L57.87 172.521L57.8485 172.305H73.184Z" fill="#FFC627"/>
<path fill-rule="evenodd" clip-rule="evenodd" d="M72.3611 179.544L65.5176 240.973L58.666 179.544H72.3611Z" fill="#FFC627"/>
<path fill-rule="evenodd" clip-rule="evenodd" d="M84.6365 206.636C84.3487 206.353 84.0045 206.211 83.6012 206.211C83.1978 206.211 82.8832 206.342 82.5955 206.604C82.2916 206.885 82.1411 207.238 82.1411 207.663C82.1411 208.088 82.2809 208.414 82.5632 208.695C82.8456 208.975 83.1925 209.114 83.6012 209.114C84.0099 209.114 84.3407 208.978 84.6257 208.705C84.9188 208.422 85.064 208.074 85.064 207.663C85.064 207.251 84.9215 206.92 84.6365 206.636ZM84.4536 208.518C84.217 208.753 83.9346 208.871 83.6012 208.871C83.2677 208.871 82.9854 208.753 82.7488 208.521C82.5121 208.286 82.3938 208 82.3938 207.663C82.3938 207.326 82.5094 207.059 82.7434 206.821C82.98 206.58 83.2677 206.457 83.6012 206.457C83.9346 206.457 84.217 206.58 84.4536 206.821C84.6902 207.059 84.8059 207.339 84.8059 207.663C84.8059 207.986 84.6875 208.28 84.4536 208.518ZM84.2654 208.377C84.2654 208.377 84.26 208.347 84.26 208.331V208.187C84.26 208.021 84.2116 207.903 84.1175 207.826C84.0664 207.783 83.9911 207.754 83.8889 207.732C83.9992 207.722 84.0933 207.684 84.1686 207.625C84.2439 207.564 84.2815 207.468 84.2815 207.331C84.2815 207.155 84.2116 207.026 84.0664 206.946C83.983 206.901 83.8755 206.874 83.7464 206.863C83.7249 206.863 83.6119 206.863 83.413 206.863H82.9612V208.473H83.3861V207.903H83.4748L83.5689 207.909C83.6335 207.914 83.6819 207.922 83.7141 207.935C83.7706 207.957 83.8109 207.997 83.8324 208.053C83.8459 208.088 83.8539 208.152 83.8593 208.251C83.8647 208.347 83.8728 208.422 83.8862 208.473H84.2896L84.2761 208.427C84.2707 208.411 84.2654 208.395 84.2654 208.379V208.377ZM83.784 207.55C83.7276 207.591 83.6496 207.612 83.5501 207.612H83.3861V207.144H83.4882C83.5958 207.144 83.6765 207.155 83.7356 207.179C83.8217 207.211 83.8647 207.272 83.8647 207.361C83.8647 207.449 83.8378 207.513 83.784 207.55ZM84.2761 208.425C84.2707 208.409 84.2654 208.393 84.2654 208.377C84.2627 208.363 84.26 208.347 84.26 208.331V208.187C84.26 208.021 84.2116 207.903 84.1175 207.826C84.0664 207.783 83.9911 207.754 83.8889 207.732C83.9992 207.722 84.0933 207.684 84.1686 207.625C84.2439 207.564 84.2815 207.468 84.2815 207.331C84.2815 207.155 84.2116 207.026 84.0664 206.946C83.983 206.901 83.8755 206.874 83.7464 206.863C83.7249 206.863 83.6119 206.863 83.413 206.863H82.9612V208.473H83.3861V207.903H83.4748L83.5689 207.909C83.6335 207.914 83.6819 207.922 83.7141 207.935C83.7706 207.957 83.8109 207.997 83.8324 208.053C83.8459 208.088 83.8539 208.152 83.8593 208.251C83.8647 208.347 83.8728 208.422 83.8862 208.473H84.2896L84.2761 208.427V208.425ZM83.784 207.55C83.7276 207.591 83.6496 207.612 83.5501 207.612H83.3861V207.144H83.4882C83.5958 207.144 83.6765 207.155 83.7356 207.179C83.8217 207.211 83.8647 207.272 83.8647 207.361C83.8647 207.449 83.8378 207.513 83.784 207.55ZM84.2761 208.425C84.2707 208.409 84.2654 208.393 84.2654 208.377C84.2627 208.363 84.26 208.347 84.26 208.331V208.187C84.26 208.021 84.2116 207.903 84.1175 207.826C84.0664 207.783 83.9911 207.754 83.8889 207.732C83.9992 207.722 84.0933 207.684 84.1686 207.625C84.2439 207.564 84.2815 207.468 84.2815 207.331C84.2815 207.155 84.2116 207.026 84.0664 206.946C83.983 206.901 83.8755 206.874 83.7464 206.863C83.7249 206.863 83.6119 206.863 83.413 206.863H82.9612V208.473H83.3861V207.903H83.4748L83.5689 207.909C83.6335 207.914 83.6819 207.922 83.7141 207.935C83.7706 207.957 83.8109 207.997 83.8324 208.053C83.8459 208.088 83.8539 208.152 83.8593 208.251C83.8647 208.347 83.8728 208.422 83.8862 208.473H84.2896L84.2761 208.427V208.425ZM83.784 207.55C83.7276 207.591 83.6496 207.612 83.5501 207.612H83.3861V207.144H83.4882C83.5958 207.144 83.6765 207.155 83.7356 207.179C83.8217 207.211 83.8647 207.272 83.8647 207.361C83.8647 207.449 83.8378 207.513 83.784 207.55Z" fill="#7A0341"/>
</svg>
